<?xml version="1.0" encoding="UTF-8"?>
<svg width="198px" height="6px" viewBox="0 0 198 6" version="1.1" xmlns="http://www.w3.org/2000/svg" xmlns:xlink="http://www.w3.org/1999/xlink">
    <!-- Generator: Sketch 53.2 (72643) - https://sketchapp.com -->
    <title>divider</title>
    <desc>Created with Sketch.</desc>
    <g id="Page-1" stroke="none" stroke-width="1" fill="none" fill-rule="evenodd">
        <g id="divider" transform="translate(-1.000000, 0.000000)" fill="#000000" fill-rule="nonzero">
            <path d="M70.7541568,0.43064133 C68.525791,0.613729216 59.106323,2.60688836 8.72921615,2.83562945 L0.371140143,2.83562945 C1.85394157,2.83562945 3.12193207,2.84750594 4.54275534,2.85035629 C3.12193207,2.85510689 1.85394157,2.86508314 0.371140143,2.86508314 L8.72921615,2.86508314 C71.3606081,3.14940618 70.5901045,6.28389549 71.6300475,4.97315914 C73.7925843,3.32650831 76.5235582,3.02741093 78.5035629,2.86508314 L78.7559382,2.86508314 C78.7260095,2.86508314 78.6971639,2.85225653 78.6668646,2.85035629 C78.6971259,2.85035629 78.7260808,2.83752969 78.7559382,2.83562945 L78.5035629,2.83562945 C76.5235582,2.67330166 73.7925843,2.37420428 71.6300475,0.727553444 C71.4265748,0.471068884 71.296209,0.38608076 70.7541568,0.43064133 Z M129.082542,0.43064133 C128.869183,0.459144893 128.772822,0.556579572 128.637173,0.727553444 C126.474637,2.37420428 123.743663,2.67330166 121.763658,2.83562945 L121.511283,2.83562945 C121.486627,2.83562945 121.461686,2.83562945 121.437055,2.83562945 C121.490817,2.84038005 121.545278,2.84655582 121.600356,2.85035629 C121.570048,2.85035629 121.541188,2.8631829 121.511283,2.86508314 L121.763658,2.86508314 C123.743663,3.02741093 126.474637,3.32650831 128.637173,4.97315914 C129.677116,6.28389549 128.906613,3.14940618 191.538005,2.86508314 L199.896081,2.86508314 C198.413278,2.86508314 197.145287,2.85320665 195.724466,2.85035629 C197.145287,2.8456057 198.413278,2.83562945 199.896081,2.83562945 L191.538005,2.83562945 C137.076133,2.58836105 130.504903,0.240285036 129.082542,0.43064133 Z M121.437055,2.83562945 C121.402993,2.83562945 121.366627,2.83562945 121.333135,2.83562945 C121.195097,2.82755344 121.075211,2.82565321 120.94715,2.82090261 C118.773302,2.5023753 116.760689,0.490166271 116.760689,0.490166271 C114.818964,2.38365796 112.63857,2.77173397 112.188242,2.83577197 L112.010095,2.83577197 C112.010095,2.83577197 112.085777,2.84907363 112.099169,2.85049881 C112.085772,2.85049881 112.010095,2.86522565 112.010095,2.86522565 L112.188242,2.86522565 C112.63857,2.92926366 114.818964,3.31733967 116.760689,5.21083135 C116.760689,5.21083135 118.78267,3.19178147 120.961995,2.88004751 C121.08505,2.87529691 121.200955,2.87292162 121.333135,2.86532067 C121.298266,2.86532067 121.264043,2.85296912 121.229216,2.85059382 C121.298409,2.84536817 121.367762,2.83729216 121.437055,2.83586698 L121.437055,2.83562945 Z M112.010095,2.86508314 C111.999881,2.85985748 111.990618,2.85510689 111.980404,2.85035629 C111.990665,2.84513064 111.999786,2.84085511 112.010095,2.83562945 L111.950713,2.83562945 C107.240898,0.490926366 104.863729,0.490023753 100.13361,0.490023753 C95.4034917,0.490023753 93.026323,0.490023753 88.3165083,2.83562945 L88.2571259,2.83562945 C88.2674347,2.84085511 88.2765558,2.84513064 88.2868171,2.85035629 C88.2766033,2.85558195 88.2673397,2.86033254 88.2571259,2.86508314 L88.3165083,2.86508314 C93.0260523,5.2095962 95.4036295,5.21068884 100.13361,5.21068884 C104.863591,5.21068884 107.241169,5.21068884 111.950713,2.86508314 L112.010095,2.86508314 Z M88.2571259,2.86508314 C88.2571259,2.86508314 88.1814442,2.85178147 88.1680523,2.85035629 C88.1814489,2.85035629 88.2571259,2.83562945 88.2571259,2.83562945 L88.0789786,2.83562945 C87.6286508,2.77159145 85.4482565,2.38351544 83.5065321,0.490023753 C83.5065321,0.490023753 81.4939192,2.50223278 79.3200713,2.8207601 C79.1920095,2.82551069 79.0721235,2.82741093 78.9340855,2.83548694 C78.9689074,2.83548694 79.0032304,2.84783848 79.0380048,2.85021378 C79.0031829,2.85496437 78.9689406,2.86351544 78.9340855,2.86494062 C79.066266,2.87254157 79.182171,2.87491686 79.3052257,2.87966746 C81.4845511,3.19140143 83.5065321,5.21045131 83.5065321,5.21045131 C85.4482565,3.31695962 87.6286508,2.92888361 88.0789786,2.86484561 L88.2571259,2.86484561 L88.2571259,2.86508314 Z" id="path2987"></path>
        </g>
    </g>
</svg>