<?xml version="1.0" standalone="no"?>
<!DOCTYPE svg PUBLIC "-//W3C//DTD SVG 20010904//EN"
 "http://www.w3.org/TR/2001/REC-SVG-20010904/DTD/svg10.dtd">
<svg version="1.0" xmlns="http://www.w3.org/2000/svg"
 width="468pt" height="148pt" viewBox="0 0 468 148"
 preserveAspectRatio="xMidYMid meet">
<metadata>
Created by potrace 1.8, written by Peter Selinger 2001-2007
</metadata>
<g transform="translate(0,148) scale(0.117000,-0.117000)"
fill="#000000" stroke="none">
<path d="M1825 1210 c-3 -5 -19 -10 -35 -10 -16 0 -32 -4 -35 -10 -3 -5 -17
-10 -30 -10 -13 0 -27 -4 -30 -10 -3 -5 -15 -10 -26 -10 -10 0 -19 -3 -19 -8
0 -4 -15 -13 -32 -21 -59 -26 -122 -73 -198 -151 -83 -84 -110 -116 -110 -129
0 -5 -3 -11 -8 -13 -4 -2 -22 -34 -41 -73 -18 -38 -37 -78 -42 -87 -5 -10 -9
-29 -9 -43 0 -14 -4 -25 -9 -25 -13 0 -25 -103 -26 -224 l-1 -109 -436 2
c-282 1 -439 -2 -443 -8 -4 -7 -15 -7 -31 -1 -32 13 -214 13 -233 1 -12 -8
-12 -12 -2 -24 10 -13 84 -15 549 -15 295 0 560 3 587 6 56 8 53 -4 39 132 -7
67 16 216 46 295 13 33 74 160 80 165 3 3 17 21 30 40 54 78 215 220 249 220
6 0 11 5 11 10 0 6 7 10 15 10 8 0 30 9 50 20 20 11 44 20 55 20 10 0 22 5 25
10 3 6 21 10 40 10 19 0 37 5 40 10 4 6 67 10 155 10 88 0 151 -4 155 -10 3
-5 21 -10 40 -10 19 0 37 -4 40 -10 3 -5 14 -10 24 -10 16 0 138 -56 151 -70
3 -3 18 -12 34 -20 54 -28 225 -207 226 -237 0 -6 3 -13 8 -15 7 -3 45 -79 63
-125 5 -13 13 -33 18 -45 18 -43 24 -94 28 -244 l4 -151 57 -6 c31 -3 296 -6
589 -6 546 0 557 1 534 37 -5 9 -156 11 -579 9 l-571 -2 -4 140 c-4 140 -10
191 -28 233 -5 12 -13 32 -18 45 -18 46 -56 122 -63 125 -5 2 -8 9 -8 15 -1
27 -128 168 -204 226 -54 42 -88 62 -186 111 -11 6 -29 10 -39 10 -11 0 -22 4
-25 9 -10 16 -78 23 -248 28 -109 2 -168 0 -173 -7z"/>
<path d="M1885 1085 c-254 -44 -468 -225 -551 -463 -40 -116 -55 -250 -35
-316 5 -17 15 -51 22 -76 7 -25 16 -49 21 -55 4 -5 8 -17 8 -27 0 -10 4 -18 9
-18 5 0 11 -10 15 -22 4 -18 8 -20 17 -11 10 10 10 18 1 38 -43 90 -57 157
-56 266 2 270 184 525 439 614 103 36 299 51 363 27 15 -5 47 -16 72 -23 127
-37 257 -137 339 -259 101 -150 135 -306 104 -470 -24 -125 -25 -130 -34 -130
-5 0 -9 -13 -9 -30 0 -33 17 -41 26 -12 8 22 24 63 35 84 5 10 9 27 9 37 0 11
4 22 9 25 16 10 23 148 12 219 -38 233 -168 417 -373 530 -65 36 -130 57 -223
73 -95 16 -127 16 -220 -1z"/>
<path d="M1990 896 c0 -14 -4 -28 -10 -31 -15 -9 -12 -36 7 -57 13 -14 14 -21
5 -30 -9 -9 -12 -9 -12 0 0 6 -10 17 -22 23 -22 12 -22 12 -5 -12 27 -37 30
-47 23 -75 -4 -16 -17 -29 -36 -36 -17 -5 -27 -14 -24 -19 10 -16 43 -9 58 13
17 24 26 12 23 -32 -2 -22 -6 -25 -40 -23 -44 3 -87 30 -107 67 -19 36 0 76
35 76 21 0 25 -5 25 -30 0 -20 5 -30 15 -30 10 0 15 10 15 34 0 46 -40 75 -78
55 -13 -8 -31 -24 -39 -36 -33 -49 33 -140 119 -164 55 -16 54 -15 33 -39 -18
-20 -18 -21 3 -50 29 -39 32 -163 5 -179 -17 -10 -17 -12 0 -25 13 -10 17 -21
12 -36 -5 -15 -10 -18 -19 -11 -19 16 -27 1 -12 -23 8 -11 17 -38 20 -58 10
-55 36 -51 36 5 0 24 6 49 13 56 10 10 9 15 -5 25 -10 7 -15 23 -13 44 2 34
15 58 15 29 0 -9 11 -24 25 -33 32 -21 65 -10 65 21 0 31 -20 43 -27 16 -7
-27 -23 -22 -42 11 -13 23 -13 30 3 65 22 50 65 70 98 44 24 -20 16 -45 -12
-36 -26 8 -33 -9 -11 -29 18 -17 21 -17 45 -1 42 28 31 75 -24 103 -21 11 -31
10 -67 -8 -23 -11 -44 -29 -48 -40 -3 -11 -11 -20 -16 -20 -12 0 -12 67 1 75
13 8 13 52 0 60 -17 10 -3 22 42 34 73 21 118 71 118 133 0 30 -6 41 -31 59
-26 18 -34 20 -54 9 -31 -17 -49 -58 -34 -76 17 -21 27 -17 22 10 -5 26 17 40
48 31 14 -5 19 -16 19 -45 0 -32 -6 -43 -32 -64 -18 -13 -49 -26 -68 -28 -32
-3 -35 0 -38 25 -4 30 0 32 27 15 10 -6 27 -8 37 -4 17 7 15 9 -12 21 -38 16
-48 47 -28 93 16 38 18 54 5 33 -5 -7 -14 -10 -20 -6 -9 5 -8 13 3 30 10 15
12 26 6 30 -6 3 -10 19 -10 36 0 19 -5 29 -15 29 -9 0 -15 -9 -15 -24z"/>
<path d="M1641 745 c-27 -15 -48 -45 -32 -45 5 0 22 5 37 11 44 16 65 5 114
-60 25 -33 61 -69 81 -80 38 -22 109 -29 109 -11 0 6 -14 10 -31 10 -34 0 -81
42 -131 118 -17 25 -42 48 -64 57 -43 18 -51 18 -83 0z"/>
<path d="M2273 744 c-20 -8 -49 -39 -80 -83 -47 -69 -75 -91 -113 -91 -22 0
-25 -12 -10 -41 8 -14 21 -19 55 -19 54 0 80 11 170 71 39 25 81 49 94 52 65
16 125 -30 103 -78 -13 -29 -26 -31 -66 -10 -16 9 -31 13 -33 11 -8 -7 20 -44
43 -56 29 -16 77 9 94 50 12 29 11 34 -17 67 -60 74 -140 69 -259 -17 -89 -65
-115 -75 -159 -61 l-30 9 28 1 c50 2 101 37 146 100 47 68 74 81 120 58 17 -9
33 -12 35 -9 10 16 -49 63 -76 61 -7 0 -27 -7 -45 -15z"/>
<path d="M1555 670 c-3 -5 -13 -10 -22 -10 -25 0 -63 -52 -63 -85 1 -32 20
-65 38 -65 6 0 12 -5 14 -12 7 -21 75 18 80 47 l5 25 -31 -20 c-44 -26 -76
-17 -76 22 0 44 24 62 84 62 45 0 59 -6 121 -50 39 -28 83 -55 98 -62 34 -14
96 -15 117 -2 18 12 17 12 -41 14 -38 1 -57 9 -105 46 -79 60 -102 74 -150 88
-50 15 -61 15 -69 2z"/>
<path d="M1841 485 c-48 -26 -53 -77 -10 -103 18 -11 24 -11 40 4 26 24 24 36
-6 28 -20 -5 -25 -2 -25 14 0 46 51 52 90 9 39 -42 17 -148 -23 -108 -17 17
-37 13 -37 -9 0 -19 27 -40 50 -40 25 0 60 53 60 91 0 55 -16 83 -62 108 -45
24 -44 24 -77 6z"/>
</g>
</svg>
