<?xml version="1.0" encoding="UTF-8" standalone="no"?>
<svg enable-background="new 0 0 704.686 280.669" height="150" viewBox="0 0 704.686 280.669" width="587.5" xml:space="preserve" xmlns="http://www.w3.org/2000/svg"><defs></defs>
<g transform="matrix(1.96554,0,0,1.96554,-334.9741,7.74439)">
	<path d="m339.653,57.664c0,3.175 1.82,8.161 5.667,13.148 .458.684.914,1.135 1.587,1.817v3.402 .907 3.174c-2.493-1.36-7.935-4.308-14.282-5.669 .904,3.174-.22,5.897-3.86,5.897-2.721,0-4.758-1.588-7.481-1.588-2.943,0-4.758,1.588-4.758,3.4s.23,3.856 1.584,6.122c-.453,0-6.345-2.04-6.345-6.122 0-3.857 1.815-6.574 4.536-8.16-14.743,2.039-26.535,9.068-37.192,16.777 .453,3.399 1.586,6.574 3.176,9.07 .45-5.218 3.404-11.339 10.433-11.339 5.897,0 11.794,1.816 13.151,10.659-1.587-.682-3.396-1.359-5.897-1.359-2.037,0-4.308,2.947-4.308,5.211 0,4.311 4.085,8.618 10.886,8.618 17.458,0 22.45-13.152 22.216-21.087h2.726c0,18.141-13.151,25.847-24.942,25.847-17.458,0-27.661-9.747-30.832-23.125-14.979,11.11-28.124,22.675-44.679,22.675-7.251,0-14.06-2.722-14.06-10.888 0-8.16 4.991-9.975 9.068-9.975 4.763,0 8.398,3.4 8.398,6.574 0,3.856-3.857,5.444-6.128,4.537 1.134-1.136 1.587-2.266 1.587-4.31 0-1.812-2.493-4.077-4.76-4.077-4.078,0-6.128,3.172-6.128,7.251 0,5.218 3.857,7.713 9.301,7.713 11.562,0 15.416-23.582 27.21-23.582 5.675,0 6.809,4.309 6.809,5.895 0,1.362-.461,4.762-.461,4.762 4.31-2.947 8.615-6.348 13.378-9.979-.223-1.813-.45-3.625-.45-5.668 0-1.356 0-2.948.228-4.305-10.435,1.13-15.193-6.353-15.193-11.339s3.171-8.618 8.163-8.618c3.176,0 5.667,2.947 5.667,5.895 0,2.27-.903,3.857-3.626,3.857-2.04,0-3.174-1.818-3.174-2.948 0-2.722 2.49-2.496 2.49-3.404-.67-.903-1.807-.452-2.721-.452-1.807,0-4.53,2.043-4.53,5.217 0,6.573 6.581,9.75 13.378,9.296 3.174-16.552 18.139-26.079 32.654-26.079 11.789,0 21.541,4.765 30.159,12.474-1.134-1.817-2.047-4.309-2.047-7.256 0-3.631 1.367-6.58 4.538-6.58 4.083,0 6.12,2.722 7.034,5.669-4.09-1.359-8.17-.677-8.17,2.045zm-86.849,44.441c-2.491,0-5.444,4.309-8.838,9.075 2.27-1.136 7.934-4.083 10.875-6.579 0-1.136-.22-2.496-2.037-2.496zm28.124-23.353c-1.367,2.947-2.04,5.897-2.04,8.386 7.484-5.212 15.641-10.43 25.173-13.831-7.484,1.361-16.335,3.631-23.133,5.445zm33.104-23.81c1.587,1.813 1.81,2.04 1.81,4.084 0,3.4-1.81,5.665-7.023,5.665-2.501,0-4.991-.904-7.031-.904-8.615,0-15.196,5.67-19.053,11.792 8.849-2.496 21.546-6.121 36.742-6.121-.914-.684-1.367-1.819-1.367-3.407 0-2.039.914-3.624 3.627-4.759-.22,4.083 2.271,5.669 7.262,5.669 3.857,0 4.991,1.36 4.991,3.173l-.46,1.362c4.768,1.36 9.985,3.172 12.25,4.083-10.887-12.926-21.32-20.411-31.748-20.637zm31.746-14.512c-.458-1.813-1.814-5.896-4.085-5.896-5.211,0-9.974,3.629-15.186,3.629-3.857,0-8.851-2.947-8.851-7.255 0-1.819 1.367-2.947 3.176-3.179-.223.682-.453,1.36-.453,2.043 0,1.361.903,2.497 2.271,2.497 4.527,0 8.165-3.406 12.695-3.406 1.356,0 2.724.457 4.078.909-2.721-2.043-6.568-4.082-9.972-4.761-11.341-1.816-26.076-7.938-24.489-19.73 .45-3.853 3.627-5.664 6.348-5.213-1.356,1.135-2.721,2.039-2.721,3.857 0,6.574 8.387,6.801 13.148,6.801 4.991,0 15.426-1.135 15.426,6.805 0,2.717-2.27,4.761-4.758,5.212 6.798,3.4 13.596,7.939 15.186,15.874l-1.813,1.813zm123.808,75.51c-16.556,0-29.701-11.565-44.669-22.675-2.954,13.378-13.376,23.125-30.848,23.125-11.559,0-24.939-7.707-24.939-25.847h2.729c0,7.935 4.976,21.087 22.211,21.087 6.813,0 10.889-4.308 10.889-8.618 0-2.264-2.268-5.211-4.306-5.211-2.492,0-4.31.677-5.896,1.359 1.356-8.843 7.253-10.659 13.15-10.659 7.259,0 9.982,6.121 10.433,11.339 1.587-2.496 2.719-5.671 3.174-9.07-10.657-7.709-22.446-14.739-37.185-16.777 2.713,1.585 4.53,4.302 4.53,8.16 0,4.083-5.892,6.122-6.348,6.122 1.356-2.266 1.587-4.31 1.587-6.122s-1.587-3.4-4.761-3.4c-2.724,0-4.761,1.588-7.479,1.588-3.63,0-4.766-2.724-3.86-5.897-6.347,1.362-11.789,4.309-14.28,5.669v-3.174-.907-3.402l1.806-1.817c3.854-4.987 5.446-9.973 5.446-13.148 0-2.722-4.079-3.404-8.166-2.044 .914-2.947 2.95-5.669 7.03-5.669 3.174,0 4.535,2.949 4.535,6.58 0,2.947-.906,5.439-2.037,7.256 8.84-7.709 18.361-12.474 30.15-12.474 14.748,0 29.48,9.527 32.66,26.079 6.798.453 13.376-2.724 13.376-9.296 0-3.174-2.493-5.217-4.53-5.217-.917,0-2.048-.452-2.724.452 0,.909 2.493.682 2.493,3.404 0,1.13-.906,2.948-3.174,2.948-2.724,0-3.63-1.587-3.63-3.857 0-2.947 2.493-5.895 5.667-5.895 4.991,0 8.165,3.629 8.165,8.618s-4.761,12.469-15.193,11.339c.225,1.356.225,2.948.225,4.305 0,2.043 0,3.855-.225,5.668 4.541,3.632 9.065,7.032 13.156,9.979 0,0-.451-3.4-.451-4.762 0-1.585 1.356-5.895 6.799-5.895 11.794,0 15.648,23.582 27.207,23.582 5.441,0 9.302-2.495 9.302-7.713 0-4.079-2.048-7.251-6.128-7.251-2.268,0-4.761,2.265-4.761,4.077 0,2.044.456,3.174 1.587,4.31-2.268.908-6.122-.681-6.122-4.537 0-3.174 3.854-6.574 8.396-6.574 4.074,0 9.065,1.815 9.065,9.975s-6.797,10.887-14.056,10.887zm-98.414-90.929c-3.404.679-7.253,2.718-9.972,4.761 1.356-.452 2.719-.909 4.075-.909 4.54,0 8.17,3.406 12.695,3.406 1.592,0 2.272-1.135 2.272-2.497 0-.683 0-1.361-.456-2.043 1.823.232 3.18,1.36 3.18,3.179 0,4.308-4.761,7.255-8.846,7.255-5.217,0-9.752-3.629-15.193-3.629-2.268,0-3.624,4.083-4.075,5.896l-1.821-1.813c1.591-7.935 8.39-12.474 15.197-15.874-2.503-.452-4.766-2.496-4.766-5.212 0-7.94 10.658-6.805 15.424-6.805 4.761,0 13.146-.227 13.146-6.801 0-1.818-1.131-2.722-2.718-3.857 2.718-.451 5.892,1.36 6.348,5.213 1.587,11.792-13.151,17.914-24.49,19.73zm27.664,38.776c-2.038,0-4.53.904-7.029.904-4.985,0-7.028-2.265-7.028-5.665 0-2.044.456-2.271 1.812-4.084-10.428.227-20.865,7.711-31.738,20.636 2.258-.91 7.479-2.722 12.24-4.083l-.451-1.362c0-1.813 1.126-3.173 4.981-3.173 4.99,0 7.483-1.586 7.264-5.669 2.724,1.135 3.624,2.721 3.624,4.759 0,1.588-.45,2.723-1.361,3.407 15.193,0 27.889,3.625 36.959,6.121-4.081-6.121-10.658-11.791-19.273-11.791zm20.859,14.965c-6.798-1.813-15.639-4.084-23.122-5.444 9.521,3.4 17.686,8.618 25.17,13.831 0-2.49-.685-5.44-2.048-8.387zm28.124,23.353c-1.817,0-2.037,1.36-2.037,2.496 2.938,2.496 8.615,5.443 10.873,6.579-3.394-4.766-6.347-9.075-8.836-9.075z"></path>

	<path d="m130.999,121.768c-.64-2.535-2.536-8.242-5.71-8.242-7.285,0-13.944,5.074-21.229,5.074-5.392,0-12.373-4.121-12.373-10.142 0-2.542 1.912-4.12 4.441-4.444-.312.954-.634,1.901-.634,2.856 0,1.902 1.264,3.489 3.174,3.489 6.33,0 11.415-4.761 17.748-4.761 1.896,0 3.806.639 5.699,1.271-3.803-2.856-9.181-5.706-13.94-6.655-15.854-2.539-36.452-11.097-34.235-27.582 .63-5.387 5.07-7.917 8.873-7.288-1.896,1.586-3.803,2.849-3.803,5.392 0,9.19 11.725,9.507 18.38,9.507 6.978,0 21.566-1.587 21.566,9.512 0,3.798-3.174,6.655-6.651,7.286 9.503,4.754 19.006,11.099 21.228,22.192l-2.534,2.535z"></path>

	<path d="m567.69,119.233c2.221-11.093 11.721-17.438 21.227-22.192-3.478-.631-6.651-3.488-6.651-7.286 0-11.099 14.586-9.512 21.566-9.512 6.651,0 18.378-.317 18.378-9.507 0-2.542-1.906-3.805-3.802-5.392 3.802-.63 8.243,1.901 8.871,7.288 2.221,16.484-18.377,25.043-34.235,27.582-4.756.949-10.135,3.799-13.937,6.655 1.891-.633 3.802-1.271 5.698-1.271 6.332,0 11.417,4.761 17.749,4.761 1.906,0 3.174-1.587 3.174-3.489 0-.955-.325-1.902-.634-2.856 2.529.324 4.441,1.901 4.441,4.444 0,6.021-6.981,10.142-12.376,10.142-7.285,0-13.941-5.074-21.227-5.074-3.174,0-5.069,5.708-5.714,8.242l-2.528-2.535z"></path>

	<path d="m553.519,126.838c-6.897,5.057-18.205,11.676-55.625,7.907-10.208-1.012-20.326-2.574-30.623-4.137-6.437-.919-12.962-1.748-19.493-2.391-4.598-.46-16.183-1.656-20.504-1.195-4.509.46-6.253,2.024-6.348,2.851 0,.183-.089.553.095.736 .095.551.461.92.461,1.287-.095.829-2.21,1.655-4.138,1.472-1.288-.092-2.576-.92-2.487-2.024 .184-1.009 3.404-4.965 11.129-6.068 6.253-.826 13.423,0 37.976,2.391 30.522,3.035 51.032,3.126 66.571-2.113 11.401-3.772 28.689-13.517 30.339-27.403 1.566-12.411-9.375-18.388-18.571-19.308-19.032-1.84-38.158,14.896-39.63,26.667-.828,6.527 4.781,10.113 10.757,10.665 6.348.644 11.496-1.93 16-5.24 8.092-5.977 9.014-10.301 9.285-12.322 .278-2.114-.089-3.861-1.1-5.148-.832-1.012-1.472-1.104-2.576-1.196-.461,0-1.194-.094-1.105-.829 .095-1.011 1.105-.919 1.477-.828 3.033.275 6.893,3.953 6.154,10.021-1.283,10.024-13.973,18.574-27.585,17.195-11.124-1.103-16.178-9.286-15.167-17.101 1.655-13.609 21.515-26.851 40.547-24.92 17.105,1.656 28.601,15.357 26.757,30.803-1.106,8.735-5.883,15.263-12.596,20.228z"></path>

	<path d="m135.706,107.944c-1.841-15.446 9.652-29.148 26.76-30.803 19.032-1.931 38.892,11.31 40.55,24.919 1.008,7.816-4.049,15.999-15.172,17.102-13.612,1.379-26.299-7.172-27.585-17.195-.738-6.068 3.124-9.747 6.157-10.021 .372-.092 1.382-.183 1.474.828 .092.734-.642.829-1.103.829-1.105.092-1.747.184-2.577,1.194-1.011,1.287-1.377,3.035-1.1,5.148 .272,2.023 1.191,6.346 9.285,12.324 4.504,3.309 9.652,5.882 15.998,5.24 5.976-.553 11.587-4.139 10.757-10.666-1.472-11.769-20.598-28.505-39.63-26.667-9.197.92-20.135,6.897-18.571,19.31 1.652,13.884 18.938,23.631 30.342,27.401 15.539,5.24 36.045,5.148 66.571,2.115 24.553-2.391 31.722-3.218 37.976-2.391 7.723,1.104 10.943,5.058 11.126,6.069 .092,1.104-1.196,1.933-2.485,2.024-1.93.183-4.043-.645-4.138-1.473 0-.367.367-.734.461-1.287 .184-.183.094-.551.094-.734-.094-.828-1.841-2.391-6.347-2.852-4.321-.46-15.908.735-20.504,1.195-6.531.644-13.057,1.473-19.493,2.391-10.296,1.564-20.415,3.126-30.62,4.139-37.423,3.77-48.733-2.852-55.628-7.908-6.711-4.965-11.493-11.495-12.598-20.231z"></path>
</g>
</svg>
