<?xml version="1.0" encoding="UTF-8" standalone="no"?>
<!-- Created with Inkscape (http://www.inkscape.org/) -->

<svg
   xmlns:dc="http://purl.org/dc/elements/1.1/"
   xmlns:cc="http://creativecommons.org/ns#"
   xmlns:rdf="http://www.w3.org/1999/02/22-rdf-syntax-ns#"
   xmlns:svg="http://www.w3.org/2000/svg"
   xmlns="http://www.w3.org/2000/svg"
   xmlns:sodipodi="http://sodipodi.sourceforge.net/DTD/sodipodi-0.dtd"
   xmlns:inkscape="http://www.inkscape.org/namespaces/inkscape"
   width="161.83435mm"
   height="132.22012mm"
   viewBox="0 0 573.4288 468.4965"
   id="svg2"
   version="1.1"
   inkscape:version="0.91pre4 r13712"
   sodipodi:docname="AnathomiaAMaisCorrecta_Tailpiece1.svg">
  <defs
     id="defs4" />
  <sodipodi:namedview
     id="base"
     pagecolor="#ffffff"
     bordercolor="#666666"
     borderopacity="1.0"
     inkscape:pageopacity="0.0"
     inkscape:pageshadow="2"
     inkscape:zoom="1.0083553"
     inkscape:cx="126.4526"
     inkscape:cy="243.979"
     inkscape:document-units="px"
     inkscape:current-layer="layer1"
     showgrid="false"
     fit-margin-top="0"
     fit-margin-left="0"
     fit-margin-right="0"
     fit-margin-bottom="0"
     inkscape:window-width="1366"
     inkscape:window-height="705"
     inkscape:window-x="-8"
     inkscape:window-y="-8"
     inkscape:window-maximized="1" />
  <metadata
     id="metadata7">
    <rdf:RDF>
      <cc:Work
         rdf:about="">
        <dc:format>image/svg+xml</dc:format>
        <dc:type
           rdf:resource="http://purl.org/dc/dcmitype/StillImage" />
        <dc:title></dc:title>
      </cc:Work>
    </rdf:RDF>
  </metadata>
  <g
     inkscape:label="Camada 1"
     inkscape:groupmode="layer"
     id="layer1"
     transform="translate(-68.467656,-60.103628)">
    <path
       style="fill:#000000"
       d="m 321.89272,527.52192 c -1.925,-0.54021 -4.53936,-2.08395 -5.80969,-3.43054 -2.6601,-2.8198 -5.50859,-9.08288 -4.71497,-10.36699 0.29643,-0.47964 0.0744,-2.09391 -0.49335,-3.58726 -1.15865,-3.0475 1.55173,-19.45264 3.21387,-19.45264 0.5072,0 0.64854,-0.44275 0.31409,-0.9839 -0.35547,-0.57516 -2.97642,0.29341 -6.30901,2.09077 -5.07869,2.73907 -6.33128,3.01157 -11.47601,2.49661 -9.2116,-0.92204 -13.55921,-4.01759 -17.61388,-12.54131 -3.12663,-6.5728 -2.88123,-15.01078 0.63896,-21.97027 3.22072,-6.36742 7.40733,-10.84186 11.9014,-12.7196 1.76651,-0.7381 3.49417,-1.79882 3.83924,-2.35715 0.34506,-0.55833 1.95715,-1.01515 3.5824,-1.01515 7.79475,0 14.72348,9.93792 13.47746,19.33082 -0.45337,3.41771 -1.4693,5.86071 -3.12622,7.51763 -2.9702,2.97019 -4.29089,2.13934 -2.35353,-1.48064 3.66143,-6.84148 -2.61856,-21.36781 -9.23771,-21.36781 -3.31007,0 -9.55087,5.19149 -12.02121,10 -1.98723,3.86815 -2.29507,5.87834 -2.19238,14.31651 0.11198,9.20097 0.30527,10.07299 3.08267,13.90708 3.71901,5.13394 11.25795,7.60385 17.2152,5.64004 13.52892,-4.45979 19.10472,-16.7986 19.05881,-42.17568 -0.0131,-7.25337 -0.50012,-14.98795 -1.08223,-17.18795 -0.58211,-2.2 -1.46222,-6.925 -1.95582,-10.5 -0.49358,-3.575 -1.32028,-7.4 -1.83709,-8.5 -0.51681,-1.1 -2.1259,-4.7 -3.57576,-8 -10.31831,-23.48537 -18.89452,-31.06163 -36.34384,-32.10632 -6.80701,-0.40754 -9.58984,0.38772 -13.62456,3.89353 -1.13126,0.98296 -3.58535,3.04201 -5.45352,4.57566 l -3.39669,2.78844 1.09267,7.36194 c 1.36104,9.17007 0.10877,14.60454 -4.53309,19.67227 -3.20305,3.49691 -3.35128,3.54747 -5.28088,1.8012 -1.54757,-1.40053 -1.98533,-3.08104 -1.98533,-7.62147 0,-6.72922 2.09057,-12.76028 6.29967,-18.17385 l 2.96122,-3.80861 -3.13045,-6.42035 c -1.72174,-3.5312 -3.13044,-6.61934 -3.13044,-6.86253 0,-0.2432 -2.25,-4.33816 -5,-9.09991 -2.75,-4.76175 -5,-9.07224 -5,-9.57887 0,-0.50662 -0.4151,-0.92113 -0.92245,-0.92113 -1.01574,0 -2.57285,4.49039 -3.52019,10.15155 -1.29473,7.73714 -8.14444,17.5595 -15.55736,22.30898 -4.55555,2.91875 -14.22499,4.61287 -20.08266,3.51854 -4.77524,-0.89212 -11.91734,-6.34582 -11.91734,-9.10007 0,-0.81345 -0.4594,-1.93841 -1.0209,-2.4999 -0.5615,-0.5615 -1.29027,-4.139 -1.61951,-7.95 -0.32923,-3.81101 -1.1135,-7.3791 -1.74285,-7.9291 -2.57158,-2.2474 -4.72188,-6.82839 -6.2099,-13.22954 -1.93995,-8.34527 -4.42009,-26.17758 -5.0693,-36.44839 -0.45516,-7.20096 -0.65155,-7.74299 -3.16142,-8.72523 -5.66926,-2.21866 -15.96965,-8.55037 -22.67612,-13.93914 -6.21047,-4.99022 -8.57616,-7.24027 -12.55738,-11.94355 -0.59864,-0.70721 -1.77369,-3.29695 -2.61122,-5.75496 -1.10059,-3.23004 -2.18939,-4.63643 -3.92709,-5.07256 -1.32237,-0.3319 -2.40431,-1.00466 -2.40431,-1.49504 0,-0.49037 -0.6799,-0.89159 -1.5109,-0.89159 -1.58642,0 -6.17394,-1.95064 -18.28364,-7.7743 -10.624702,-5.10952 -17.732742,-12.46713 -25.819182,-26.7257 -5.80673,-10.23883 -8.7677,-19.64955 -8.80988,-28 -0.0496,-9.81995 1.16883,-20.18665 2.74237,-23.33289 0.73365,-1.46691 2.08705,-4.16608 3.00757,-5.99815 0.92051,-1.83207 1.67366,-3.94581 1.67366,-4.6972 0,-0.75139 3.72524,-5.10242 8.27831,-9.66896 10.77788,-10.80977 21.516582,-16.7398 32.678432,-18.04541 12.80017,-1.49724 32.12848,-1.92109 41.04326,-0.90003 11.31204,1.29562 17.25344,2.12605 18.6486,2.6065 0.63172,0.21755 2.88172,-0.87273 5,-2.42283 22.56516,-16.51268 46.14189,-16.69306 78.3514,-0.59945 13.80155,6.89599 19.75939,10.20845 24.0923,13.39491 2.36594,1.73993 4.69631,3.16351 5.17861,3.16351 0.4823,0 4.44966,2.475 8.81636,5.5 4.36669,3.025 8.20618,5.5 8.53218,5.5 0.32601,0 2.29726,1.35 4.38055,3 2.08329,1.65 4.22084,3 4.7501,3 0.52926,0 3.04896,1.59329 5.59934,3.54064 l 4.63704,3.54065 3.73889,-2.54065 c 2.0564,-1.39735 4.37698,-2.54064 5.15685,-2.54064 1.73728,0 12.11712,-5.02639 13.93922,-6.75 0.72678,-0.6875 1.87427,-1.25 2.55,-1.25 0.6757,0 1.74516,-0.5166 2.37657,-1.148 0.864,-0.864 0.10948,-1.84096 -3.05,-3.94912 -2.3089,-1.54061 -5.56561,-4.06151 -7.23712,-5.60199 -1.67152,-1.54049 -4.95685,-4.31929 -7.30075,-6.1751 -4.17572,-3.30621 -4.40021,-3.36056 -11.13884,-2.69655 -3.78249,0.37272 -7.69716,0.27035 -8.69926,-0.22749 -1.00212,-0.49783 -3.91332,-1.94974 -6.46932,-3.22646 -3.00837,-1.50267 -5.18831,-3.45585 -6.18142,-5.53841 -1.47002,-3.08267 -1.43097,-3.31403 0.93457,-5.53634 2.10132,-1.97408 3.54556,-2.32527 9.70479,-2.35988 6.02749,-0.0339 7.71402,0.33514 10.09758,2.20934 1.57382,1.2375 3.28498,2.25 3.80259,2.25 0.5176,0 3.54308,2.00219 6.72329,4.4493 l 5.78221,4.4493 8.89184,-4.51733 c 11.89704,-6.04408 12.20281,-6.3819 9.55282,-10.5541 -1.1623,-1.82995 -3.30445,-5.80217 -4.76035,-8.82717 -8.53859,-17.741145 -10.0422,-25.955585 -6.05063,-33.055501 3.45767,-6.150281 8.08864,-12.868483 8.89769,-12.907992 0.41122,-0.02008 2.88621,-1.542996 5.5,-3.384254 5.20834,-3.668987 12.79867,-6.648718 18.25231,-7.165298 8.38192,-0.793953 19.50748,5.490855 23.39072,13.21338 0.9833,1.955461 1.59839,5.650803 1.58128,9.5 -0.04,8.99004 -4.00493,17.393565 -12.04463,25.527895 -5.68394,5.75086 -16.81528,14.26466 -18.66606,14.27674 -0.41872,0.003 -2.05385,1.03925 -3.63362,2.30339 l -2.87232,2.29842 3.76455,3.44661 c 2.07051,1.89564 5.75201,5.35911 8.18113,7.69661 2.42911,2.3375 4.73427,4.25 5.12257,4.25 0.38829,0 2.37036,-0.89205 4.40459,-1.98233 2.03423,-1.09028 5.42147,-2.25783 7.5272,-2.59455 4.15757,-0.66482 12.24458,1.06255 12.24458,2.61542 0,0.5288 0.675,0.96146 1.5,0.96146 1.02822,0 1.5,1.03083 1.5,3.27749 0,7.58508 -6.70587,10.79744 -18.25,8.74245 -3.7125,-0.66086 -6.75,-1.57495 -6.75,-2.0313 0,-0.91264 -5.76528,-2.50246 -7.74279,-2.13513 -0.68354,0.12697 -3.84518,1.89937 -7.02587,3.93867 -3.1807,2.0393 -6.59369,4.15782 -7.58443,4.70782 -2.80807,1.55887 -2.25237,2.76444 2.76567,6 2.55899,1.65 7.4472,5.3625 10.8627,8.25 3.4155,2.8875 6.77581,5.25 7.46736,5.25 0.69155,0 1.25736,0.39565 1.25736,0.87923 0,0.87217 21.04076,-4.80636 22,-5.93741 0.60168,-0.70944 8.60179,-3.51257 15.5,-5.43098 32.46693,-9.02916 60.66291,-12.13351 74,-8.14733 15.67693,4.68551 27.28572,12.18905 34.03222,21.9973 1.08228,1.57344 2.53028,3.4538 3.21778,4.17857 0.6875,0.72477 1.25,1.73922 1.25,2.25433 0,0.51512 0.82658,2.00976 1.83685,3.32143 1.01027,1.31167 2.36026,5.04735 2.99998,8.3015 0.63971,3.25415 1.39238,6.1459 1.6726,6.42612 0.28021,0.28022 4.66773,-1.56292 9.75003,-4.09586 27.63051,-13.77062 34.09359,-16.05483 45.74055,-16.16586 8.47022,-0.0808 21,2.66954 21,4.60951 0,0.48064 0.7875,1.20775 1.75,1.6158 3.96301,1.68008 9.25,5.47382 9.25,6.63744 0,0.68543 0.921,2.07973 2.04666,3.09845 6.1667,5.58078 9.98867,25.42156 6.81664,35.38676 -2.48774,7.81546 -7.4117,18.55968 -9.57587,20.89487 -1.2581,1.3575 -2.28743,2.76664 -2.28743,3.13142 0,1.52393 -10.39114,11.27949 -15.73153,14.76931 -3.17266,2.07326 -6.12833,4.33337 -6.56817,5.02248 -0.43983,0.6891 -1.3138,1.25292 -1.94215,1.25292 -0.62835,0 -4.65106,1.6875 -8.93932,3.75 -7.68797,3.69763 -7.78859,3.7947 -7.20572,6.95109 0.46978,2.54401 -0.13869,4.39142 -2.9643,9 -3.24111,5.28627 -5.08233,6.95506 -12.64881,11.46428 -4.04081,2.40811 -12.35279,4.77279 -20.70908,5.89155 -4.28501,0.57369 -9.81592,1.46232 -12.29093,1.97474 -2.475,0.51241 -10.18816,1.22793 -17.14036,1.59003 l -12.64037,0.65837 -0.49969,13.60997 c -0.49988,13.61488 -2.01869,20.55053 -5.297,24.18871 -0.78242,0.86831 -1.42258,2.0366 -1.42258,2.5962 0,1.70026 -8.99858,9.32506 -11.00519,9.32506 -1.03223,0 -2.15489,0.45 -2.49481,1 -0.93523,1.51324 -6.96316,1.19861 -11.4528,-0.59779 -3.27788,-1.31155 -4.10703,-2.20421 -4.6283,-4.98284 -0.50398,-2.68641 -1.28349,-3.58246 -3.77697,-4.3416 -6.17996,-1.88148 -10.72501,-3.76085 -11.87405,-4.90989 -0.64234,-0.64234 -1.61142,-1.16788 -2.15352,-1.16788 -0.54211,0 -3.11702,-1.7972 -5.72203,-3.99378 l -4.73639,-3.99378 -2.75702,2.24378 c -6.8434,5.56947 -20.1888,19.6887 -22.75029,24.06946 -2.44133,4.17526 -2.63723,5.05134 -1.45342,6.5 0.75252,0.92087 2.42323,3.63662 3.71269,6.03499 1.91557,3.56293 2.23556,5.28021 1.74916,9.38714 -0.32743,2.76457 -1.2842,5.7877 -2.12619,6.71808 -0.84198,0.93037 -1.53087,2.18833 -1.53087,2.79546 0,1.84181 -3.86661,2.46533 -6.91645,1.11534 -2.30075,-1.01841 -2.98232,-2.07921 -3.42086,-5.32425 -0.74865,-5.53973 0.26983,-12.11524 2.54683,-16.44291 l 1.89918,-3.60953 -0.60596,3.5 c -0.33328,1.925 -0.84354,6.44343 -1.13391,10.04095 -0.44164,5.47153 -0.21344,6.92938 1.39585,8.91676 5.76681,7.12171 9.94632,-7.77298 5.03854,-17.95603 -1.41854,-2.94331 -3.38155,-5.16804 -5.54111,-6.27987 -3.56383,-1.83483 -13.73307,-2.38684 -14.71456,-0.79875 -0.31376,0.50769 -1.99047,1.23495 -3.72602,1.61614 -4.75004,1.04328 -12.59785,8.98205 -16.00247,16.18794 -1.61959,3.42786 -3.36644,6.49312 -3.88188,6.81169 -0.51545,0.31856 -0.93718,1.57752 -0.93718,2.79768 0,1.22016 -0.60471,3.10611 -1.34379,4.19098 -0.73909,1.08488 -2.33366,7.14751 -3.54349,13.47251 -1.20984,6.325 -2.85513,14.5927 -3.65621,18.37267 -3.7053,17.48375 0.33451,36.65795 8.61212,40.87578 3.752,1.91182 11.98015,2.33099 14.91583,0.75987 3.16656,-1.69469 4.3535,-9.8498 2.72129,-18.69711 -1.15802,-6.27702 -5.47601,-11.31121 -9.70196,-11.31121 -4.11225,0 -5.42799,2.31146 -5.21963,9.16973 0.13139,4.32462 -0.15635,5.87287 -1.03689,5.57936 -1.65334,-0.55111 -2.87304,-8.28809 -1.76572,-11.20055 1.27126,-3.34367 7.61543,-7.88187 11.01845,-7.88187 2.98877,0 10,4.5962 10,6.55548 0,0.6162 0.73751,1.93531 1.63892,2.93135 1.08351,1.19727 1.67656,3.76559 1.75,7.57874 0.22244,11.54974 -7.73595,21.26776 -17.41683,21.26776 -4.74966,0 -11.29299,-2.09218 -12.46273,-3.98485 -1.58913,-2.57128 -2.18681,-0.36127 -2.00155,7.40106 0.23516,9.85325 -2.40831,19.22057 -7.10333,25.17114 -1.59746,2.02466 -3.65388,4.61685 -4.56982,5.76041 -2.25491,2.81531 -12.60898,3.0658 -15.58381,0.37701 -1.83576,-1.65924 -2.05512,-1.66546 -3.35747,-0.0951 -1.51347,1.82493 -7.04878,4.42521 -9.11126,4.28013 -0.70517,-0.0496 -2.85712,-0.53217 -4.78212,-1.07238 z m 13.12597,-8.02007 c -0.20574,-1.27455 -0.49008,-5.01736 -0.63189,-8.31736 -0.3642,-8.47541 -0.36898,-8.5 -1.64969,-8.5 -0.63558,0 -2.54808,1.04438 -4.25,2.32086 -5.42307,4.06741 -5.85427,4.03043 -3.44345,-0.2953 1.37109,-2.46014 3.74413,-4.89713 5.69998,-5.85357 3.28349,-1.60569 3.39557,-1.58675 5.56989,0.94105 l 2.21898,2.57971 1.63359,-2.84637 c 2.18602,-3.80891 5.94736,-3.77948 9.80354,0.0767 3.18493,3.18493 3.73582,6.15752 1.487,8.02387 -1.06596,0.88467 -1.96801,0.90716 -3.5,0.0873 -2.37871,-1.27305 -2.87874,-4.28412 -0.56392,-3.39584 2.11631,0.81211 1.8639,-0.99907 -0.42834,-3.07352 -1.28352,-1.16157 -2.66025,-1.51281 -4.11718,-1.0504 -1.9624,0.62284 -2.1389,1.2145 -1.70606,5.7191 0.26554,2.76342 0.11525,6.65386 -0.33395,8.64543 -1.71828,7.61813 3.70475,10.22338 12.44335,5.97784 3.64916,-1.7729 4.90638,-3.17899 7.27675,-8.13837 2.66619,-5.57831 2.86543,-6.83733 2.86543,-18.10681 0,-9.09673 -0.40573,-12.98288 -1.62992,-15.61164 -6.93637,-14.89482 -5.09008,-48.9443 3.55166,-65.5 0.86127,-1.65 1.56871,-3.5625 1.5721,-4.25 0.003,-0.6875 0.45616,-1.25 1.00616,-1.25 0.55,0 1,-0.45965 1,-1.02144 0,-0.90948 4.68457,-8.70512 5.99633,-9.97856 0.28328,-0.275 1.78292,-2.20065 3.33254,-4.27922 5.93663,-7.96306 11.66585,-11.87423 21.06091,-14.37766 5.4464,-1.45125 7.16007,-1.54607 9.9181,-0.54875 4.60918,1.6667 7.69212,1.53249 7.69212,-0.33486 0,-1.50572 3.40347,-6.936 5.60828,-8.9481 0.92339,-0.84269 4.65603,-5.38188 13.63403,-16.58012 0.69173,-0.86279 2.12731,-2.56396 3.19017,-3.78038 l 1.93249,-2.21167 -4.79375,-4.86693 c -3.89545,-3.95492 -4.8829,-5.68258 -5.26953,-9.21962 -0.71422,-6.5339 3.7559,-15.22208 10.28782,-19.99555 5.09486,-3.72332 22.06176,-11.85718 24.7335,-11.85718 0.78801,0 2.9502,-0.63276 4.80487,-1.40612 6.59265,-2.74904 22.40717,-4.84536 40.34903,-5.34853 17.44436,-0.48922 18.05492,-0.57778 20.6098,-2.98918 2.28911,-2.16055 14.24424,-8.13996 17.32868,-8.66702 0.59654,-0.10193 2.20961,-0.80423 3.58461,-1.56065 1.66147,-0.91401 6.0802,-1.39219 13.17403,-1.42565 8.74852,-0.0413 11.01763,0.26061 12.57875,1.67341 1.04759,0.94806 2.61925,1.72374 3.49256,1.72374 0.87332,0 2.47442,1.21706 3.55801,2.70458 l 1.97015,2.70458 7.12753,-2.86931 c 3.92014,-1.57813 7.6262,-3.47019 8.2357,-4.20459 0.60949,-0.73439 1.55364,-1.33526 2.09812,-1.33526 1.39409,0 15.48497,-11.37409 17.90968,-14.45661 4.26503,-5.42209 8.8628,-15.7561 9.50592,-21.36557 0.35803,-3.1228 1.25815,-7.4219 2.00026,-9.55355 3.34239,-9.60072 -0.39698,-26.81549 -7.57533,-34.87427 -1.34726,-1.5125 -3.04037,-2.75 -3.76247,-2.75 -0.7221,0 -1.31291,-0.37007 -1.31291,-0.82237 0,-1.99543 -8.12636,-5.96354 -13.64341,-6.6621 -10.44397,-1.32239 -11.76231,-1.3253 -18.56543,-0.041 -6.85293,1.29366 -11.92873,3.44433 -33.19654,14.06569 -11.18774,5.58728 -12.10787,6.26211 -12.27137,9 -0.40309,6.75029 -2.81099,15.34598 -5.96473,21.29287 -1.84718,3.48318 -3.35852,6.87984 -3.35852,7.54814 0,0.66829 -1.56071,2.76842 -3.46825,4.66695 -1.90754,1.89852 -3.48254,3.96774 -3.5,4.59827 -0.0175,0.63052 -1.71925,2.58968 -3.78175,4.35369 -2.0625,1.76401 -5.92863,5.1919 -8.59139,7.61753 -16.88677,15.38294 -50.59477,18.55234 -88.15861,8.28911 -4.4,-1.20217 -9.35,-2.7625 -11,-3.4674 -1.65,-0.7049 -5.97159,-2.39714 -9.60353,-3.76054 -3.63195,-1.3634 -7.45695,-2.96258 -8.5,-3.55372 -1.04306,-0.59115 -4.82147,-2.25038 -8.39647,-3.68718 -8.43668,-3.39071 -25.20578,-11.79281 -39.66141,-19.87222 -2.39993,-1.34135 -5.33581,-2.74741 -6.52417,-3.12458 -1.18837,-0.37717 -3.06762,-1.53072 -4.17611,-2.56344 -2.14003,-1.99374 -6.52552,-2.45754 -9.40188,-0.99433 -0.95504,0.48583 -2.86143,1.3554 -4.23643,1.93237 -7.60866,3.19272 -9.92675,4.49381 -9.43217,5.29406 0.30261,0.48963 0.95109,0.89024 1.44105,0.89024 1.20459,0 9.39198,5.57315 10.95612,7.45782 2.26643,2.73089 9.70926,5.86545 12.20533,5.1403 5.07996,-1.4758 14.84974,-1.82635 16.34377,-0.58642 2.46172,2.04305 1.77497,5.38633 -1.50433,7.32345 -2.39729,1.41612 -4.1819,1.63155 -9,1.08645 -3.30536,-0.374 -6.00977,-1.03229 -6.00977,-1.46291 0,-0.43061 -1.72463,-1.07431 -3.8325,-1.43043 -3.20328,-0.54119 -5.21447,0.0176 -12.25,3.40349 -4.62963,2.22805 -8.92489,4.05487 -9.54505,4.0596 -0.62016,0.005 -1.64507,0.63219 -2.2776,1.39434 -0.90785,1.09387 -0.41082,2.14692 2.35989,5 1.93046,1.98785 3.96789,3.61427 4.5276,3.61427 0.55972,0 1.01767,0.62686 1.01767,1.39301 0,0.76616 0.675,1.65203 1.5,1.96862 0.825,0.31658 1.5,1.08747 1.5,1.71308 0,0.62562 1.25126,2.77724 2.78058,4.78139 4.32535,5.66829 6.87562,11.98583 7.81268,19.35364 0.37007,2.90964 1.09164,5.8209 1.60348,6.46947 0.5913,0.74922 0.36046,2.85862 -0.63306,5.78494 -0.86003,2.53316 -1.56369,5.19599 -1.56369,5.9174 0,2.07162 -6.69808,8.4259 -11.14817,10.57595 -2.2287,1.07679 -8.08218,2.73319 -13.00772,3.68089 -7.23712,1.39247 -9.58208,1.49653 -12.22082,0.54235 -1.79591,-0.64941 -4.26757,-1.18074 -5.49259,-1.18074 -1.22502,0 -4.0901,-0.9 -6.36684,-2 -2.27673,-1.1 -4.49,-2 -4.91836,-2 -1.61088,0 -7.90774,-7.21169 -9.41619,-10.78421 -3.103,-7.34894 1.15515,-21.92696 9.41003,-32.21579 5.53972,-6.90468 13.36124,-14.28527 17.46178,-16.4774 2.03438,-1.08758 3.69888,-2.47649 3.69888,-3.08648 0,-0.61 -2.3625,-2.34508 -5.25,-3.85576 -2.8875,-1.51067 -7.48782,-4.10505 -10.22294,-5.76528 -5.75018,-3.49041 -11.15449,-3.45317 -14.9398,0.10295 -2.70801,2.54403 -7.28522,2.65453 -10.40904,0.25129 -1.85996,-1.43092 -2.25778,-2.56154 -2,-5.68404 0.30396,-3.68201 0.57985,-3.97764 4.9828,-5.33949 4.17259,-1.29059 5.66568,-1.25255 14.24815,0.36294 8.75889,1.64871 9.73845,1.66767 11.33897,0.21942 0.96352,-0.87185 3.77686,-2.54556 6.25186,-3.71934 7.8112,-3.70451 9,-4.45299 9,-5.66648 0,-0.65088 -1.31891,-1.4731 -2.9309,-1.82715 -1.612,-0.35406 -3.4671,-1.28981 -4.12245,-2.07946 -0.65535,-0.78965 -1.54716,-1.43572 -1.98181,-1.43572 -0.43465,0 -3.15381,-1.55657 -6.04258,-3.45905 -4.83277,-3.18276 -5.45879,-3.35105 -7.83728,-2.10687 -1.42174,0.74371 -6.40998,3.20488 -11.08498,5.46928 -4.675,2.26439 -9.625,4.77115 -11,5.57056 -3.6106,2.09917 -11.69553,5.52608 -13.03741,5.52608 -0.63092,0 -2.2913,0.9 -3.68972,2 -1.39841,1.1 -3.1018,2 -3.78528,2 -0.68349,0 -1.76383,0.62793 -2.40077,1.39539 -0.63694,0.76747 -2.82954,1.70774 -4.87244,2.08949 -2.0429,0.38175 -4.26771,1.15132 -4.94401,1.71015 -1.71885,1.4203 -30.85069,2.22232 -35.77036,0.98478 -9.47572,-2.38361 -19.59871,-7.01242 -24.5,-11.20281 -8.61773,-7.36777 -11.99489,-10.53098 -11.99736,-11.23726 -0.001,-0.41814 -1.49166,-2.89314 -3.31157,-5.5 -5.12972,-7.34789 -6.88598,-12.76653 -7.45179,-22.9912 -0.55469,-10.0236 0.93174,-19.66919 3.81384,-24.74854 0.93624,-1.65 3.30359,-5.80496 5.26079,-9.23324 3.24849,-5.69015 16.30339,-22.29417 18.68709,-23.76738 5.92905,-3.66436 -15.50974,-7.20135 -37.00101,-6.10447 -24.13959,1.23205 -26.50403,1.8692 -40.897812,11.02069 -7.36047,4.67975 -18.10219,17.59509 -18.10219,21.76522 0,0.5109 -0.9756,3.04172 -2.16801,5.62404 -1.68074,3.63987 -2.18949,6.71796 -2.26358,13.69514 -0.0526,4.95 -0.47029,9.58966 -0.9283,10.31036 -0.45992,0.7237 -0.37831,2.51453 0.18229,4 0.55827,1.4793 1.31159,4.03233 1.67404,5.6734 2.13485,9.66587 11.94597,25.29139 18.80128,29.94353 3.9432,2.67593 25.904902,13.57271 27.354842,13.57271 0.53368,0 1.93144,0.89542 3.10615,1.98983 2.32072,2.16208 2.61522,1.96835 3.66502,-2.41091 2.23699,-9.33157 13.23053,-14.59483 22.19865,-10.62781 2.40769,1.06504 4.37762,2.41173 4.37762,2.99266 0,0.58093 0.6383,1.05623 1.41844,1.05623 0.78014,0 2.36425,1.53035 3.52024,3.40078 1.15598,1.87042 2.7677,3.6563 3.58156,3.96861 0.81388,0.31231 1.47976,1.13577 1.47976,1.8299 0,0.69413 0.86749,3.52075 1.92775,6.28138 1.06026,2.76063 2.42139,6.37691 3.02475,8.03617 0.6954,1.91241 2.27771,3.50516 4.32225,4.35073 1.77388,0.73364 4.80026,1.98536 6.72525,2.7816 1.92501,0.79625 4.36454,1.92784 5.4212,2.51466 1.05666,0.58682 3.98166,2.19965 6.5,3.58406 2.51834,1.38441 7.66036,4.59499 11.4267,7.13461 3.76635,2.53963 7.59135,5.0675 8.5,5.6175 0.90866,0.55 1.87711,1.225 2.1521,1.5 0.275,0.275 2.60734,1.9688 5.18297,3.764 5.56401,3.87807 12.81703,10.68864 12.81703,12.03515 0,0.52578 0.64554,1.49171 1.43454,2.14652 0.78899,0.65481 2.45339,3.07241 3.69866,5.37244 1.94047,3.58409 2.29485,5.87239 2.47904,16.00765 0.15614,8.59151 0.60824,12.28366 1.65306,13.5 1.88237,2.19139 11.7347,19.12502 11.7347,20.16894 0,0.44369 1.03622,3.04328 2.30271,5.77688 l 2.30272,4.97016 3.09121,-2.62087 c 9.44896,-8.01126 11.55536,-8.65121 26.09773,-7.9288 10.91223,0.54207 19.29695,4.0136 25.2237,10.44336 2.21272,2.40051 4.35135,4.36487 4.75253,4.36524 0.74444,6.9e-4 8.23825,14.84185 8.23254,16.30419 -0.002,0.44268 0.83853,2.69268 1.86724,5 1.0287,2.30733 2.17295,7.29819 2.54277,11.0908 0.36982,3.79262 1.16538,7.81682 1.76792,8.94268 1.38901,2.59538 1.40805,26.2437 0.0225,27.92525 -0.56033,0.68003 -1.51104,3.91028 -2.1127,7.17834 -0.60165,3.26806 -1.48669,6.19306 -1.96676,6.5 -0.48006,0.30694 -1.19276,2.03259 -1.58379,3.83477 -0.39102,1.80219 -1.8157,5.17719 -3.16594,7.5 -1.35024,2.32282 -2.83117,4.8983 -3.29094,5.7233 -2.68595,4.81956 -4.34868,13.2533 -3.78708,19.20888 0.9015,9.56015 6.00239,17.65283 11.20365,17.77483 1.1,0.0258 2.62434,0.4423 3.38742,0.92555 0.84962,0.53805 2.59393,0.36442 4.5,-0.44795 2.43216,-1.03658 3.03081,-1.83317 2.73854,-3.64395 z m 3.81538,-8.61283 c 0.62022,-2.16259 0.49016,-3.59973 -0.44102,-4.87319 -1.19983,-1.64086 -1.38465,-1.46487 -2.02035,1.92376 -0.66715,3.55616 -0.001,7.5995 1.07441,6.52384 0.27903,-0.27903 0.90317,-1.88751 1.38696,-3.57441 z M 253.15682,406.67763 c 2.13714,-4.93299 2.52004,-20.24441 0.4859,-19.42976 -2.65519,1.06336 -5.75,10.15686 -5.75,16.89526 0,5.58312 0.25842,6.54136 1.7641,6.54136 1.10313,0 2.4145,-1.50128 3.5,-4.00686 z m -39.5141,-29.7753 c 5.52911,-2.80002 9.25192,-5.29445 9.25478,-6.20108 0.003,-0.83422 1.57763,-3.2293 3.5,-5.32241 1.92237,-2.09311 3.49522,-4.57477 3.49522,-5.51481 0,-0.94004 0.9,-3.38836 2,-5.44072 2.08749,-3.8948 2.72663,-10.73882 1.00287,-10.73882 -0.54842,0 -1.56092,-1.2921 -2.25,-2.87133 -1.32734,-3.04198 -14.37331,-15.12867 -16.32939,-15.12867 -0.63457,0 -2.28989,-0.89368 -3.67849,-1.98595 -1.3886,-1.09228 -4.71179,-3.12995 -7.38486,-4.52816 -2.67307,-1.39821 -5.53513,-2.96354 -6.36013,-3.4785 -1.61211,-1.00628 -24.26382,-12.00739 -24.72368,-12.00739 -0.73033,0 -0.0546,10.49634 1.22312,19 3.18371,21.18808 3.64497,23.62537 5.04379,26.65113 0.80122,1.73312 1.45677,3.59052 1.45677,4.12755 0,0.53704 0.69063,1.5496 1.53474,2.25015 1.27356,1.05696 1.86918,0.91473 3.5,-0.83574 1.0809,-1.16021 1.96526,-2.56913 1.96526,-3.13095 0,-0.56182 1.87021,-1.9756 4.15601,-3.14173 5.57115,-2.84219 9.36396,-1.76578 13.03426,3.69916 2.48151,3.69487 2.62134,4.38434 1.57839,7.78257 -0.62938,2.0507 -2.03436,4.20488 -3.12219,4.78707 -2.86804,1.53493 -13.38566,0.35679 -15.72647,-1.76162 -2.89448,-2.61947 -3.24708,-1.2706 -1.49937,5.73576 1.23509,4.9513 2.36791,7.03488 5.18157,9.53041 5.99337,5.31571 10.27573,5.04267 23.14781,-1.47592 z m 279.25251,-6.71914 c 7.61027,-3.93542 13.78936,-19.90268 14.22163,-36.74982 0.25026,-9.75334 0.11032,-10.75102 -1.50784,-10.75 -0.98104,6.1e-4 -3.10337,1.35112 -4.7163,3.00112 -1.61293,1.65 -3.16885,3 -3.4576,3 -0.28875,0 -1.81332,1.3481 -3.38792,2.99577 -3.60666,3.77402 -9.78948,8.00423 -11.69889,8.00423 -0.80057,0 -1.45559,0.41066 -1.45559,0.91258 0,1.47663 -13.02736,5.86127 -19.01137,6.39869 -3.17649,0.28527 -7.06301,-0.0385 -9.17395,-0.76417 -4.78994,-1.6467 -6.95321,-0.46265 -4.36993,2.39185 1.02587,1.13358 2.3155,2.06105 2.86586,2.06105 0.55034,0 2.46893,1.11994 4.26355,2.48876 4.62081,3.52446 14.70605,8.6177 16.04597,8.10352 0.62003,-0.23793 1.41796,-1.98175 1.77317,-3.87515 0.75229,-4.01008 3.08801,-6.42118 7.42549,-7.66516 4.2415,-1.21644 7.0876,-0.27317 7.80544,2.58693 1.05394,4.19923 -1.32957,7.97685 -6.20872,9.84022 l -4.42997,1.69182 2.20906,3.16453 c 1.21498,1.74049 2.68073,3.49514 3.25723,3.89922 1.74243,1.2213 6.47026,0.85696 9.55069,-0.73599 z m -295.85506,-8.66102 c 3.07471,-0.92121 4.04896,-1.80285 4.69643,-4.25 1.18348,-4.47304 -0.47383,-6.58768 -5.16296,-6.58768 -3.10491,0 -4.58699,0.73421 -7.75945,3.84401 -2.15681,2.1142 -3.92147,4.2991 -3.92147,4.85534 0,0.55623 1.4625,1.48049 3.25,2.0539 4.3917,1.40882 4.47439,1.40961 8.89745,0.0844 z m 286.60255,-2.08251 c 1.42855,-1.14291 1.62433,-4.6163 0.3716,-6.59266 -1.56473,-2.4686 -5.47635,-0.93746 -6.46677,2.53131 -1.66307,5.82454 1.36739,7.84379 6.09517,4.06135 z m -16.39434,-15.31935 c 7.17872,-1.8275 14.80351,-5.22977 15.94403,-7.11439 0.43983,-0.72679 1.33983,-1.32766 2,-1.33528 1.33518,-0.0154 14.00824,-10.49635 14.53364,-12.0197 0.41195,-1.19439 -4.51182,-1.29568 -5.2459,-0.10792 -0.29183,0.4722 -3.16116,1.09707 -6.37627,1.38861 -9.55837,0.86672 -28.51765,9.90313 -35.45634,16.89925 -1.66023,1.67398 -1.66023,1.80911 0,2.77621 2.52326,1.46982 7.57683,1.30134 14.60084,-0.48678 z m -16.70792,-6.18582 c 10.90678,-10.38691 14.28059,-12.4074 29.47467,-17.6517 7.02969,-2.42632 25.23252,-5.11502 27.04512,-3.99477 1.48685,0.91894 16.6632,-17.10613 15.43594,-18.33339 -0.92666,-0.92667 -10.58282,-0.56018 -17.13008,0.65015 -3.21238,0.59384 -8.03243,1.07971 -10.71121,1.07971 -5.3282,0 -19.12075,3.51322 -30.54384,7.78008 -7.69234,2.87332 -19.94842,11.25444 -21.73521,14.86327 -0.58366,1.17884 -1.59246,2.78348 -2.24178,3.56586 -0.64932,0.78238 -1.48016,3.97142 -1.84632,7.08676 -0.60727,5.16693 -0.45627,5.83868 1.71963,7.65087 3.5211,2.93253 5.02673,2.54704 10.53308,-2.69684 z m -214.16739,-0.16052 c 0.73975,-3.36808 -1.72864,-12.68035 -4.24879,-16.02891 -3.3403,-4.43834 -11.76855,-12.37384 -15.73061,-14.81094 -2.20052,-1.35356 -5.57595,-3.49042 -7.50095,-4.74857 -4.0895,-2.67284 -11.43042,-6.94776 -15,-8.73513 -1.375,-0.68849 -2.95,-1.58667 -3.5,-1.99596 -2.02039,-1.50349 -18.51043,-9.76997 -19.48922,-9.76997 -0.57776,0 -1.01078,2.79525 -1.01078,6.52475 0,6.20834 0.13337,6.57334 2.75,7.52673 3.60462,1.31337 16.36367,7.87069 18.13037,9.31783 1.46227,1.19777 10.91629,6.73016 15.11963,8.84784 3.08356,1.55353 2.91004,1.41156 14.40158,11.78285 5.17997,4.675 9.73692,9.4 10.12655,10.5 0.96133,2.71397 3.5603,5.56338 4.52858,4.96495 0.43418,-0.26834 1.07482,-1.7873 1.42364,-3.37547 z m 76.24511,-6.95095 c 12.99338,-3.4113 18.26328,-8.07153 18.86115,-16.67914 0.35781,-5.15132 -1.35291,-13.87898 -3.61588,-18.44735 -0.41195,-0.83162 -1.58639,-3.22666 -2.60986,-5.32232 -1.72421,-3.53044 -19.12031,-22.68972 -20.60164,-22.68972 -1.72368,0 -10.08765,6.56805 -13.12581,10.30742 -3.6496,4.49192 -7.63341,11.43586 -7.63341,13.30533 0,0.6283 -0.57575,1.62019 -1.27945,2.20421 -0.84241,0.69914 -1.37369,4.43263 -1.55537,10.93004 -0.24819,8.87645 -0.0214,10.37485 2.25619,14.90951 6.484,12.90936 13.45852,15.64214 29.30408,11.48202 z m 220.27454,-16.22569 c 21.10577,-1.05317 41.71314,-5.66181 47.13285,-10.54082 2.1103,-1.89977 5.10695,-9.74911 4.69007,-12.28505 -0.31988,-1.9459 -0.36982,-1.94532 -5.32291,0.0626 -2.75,1.1148 -5.77969,2.43614 -6.73264,2.93631 -1.99346,1.04629 -24.30547,3.14405 -30.26736,2.84571 -2.2,-0.11009 -6.79867,-0.13973 -10.21927,-0.0659 l -6.21927,0.1343 -3.3949,5.25 c -1.86719,2.8875 -4.58102,6.34094 -6.03073,7.67431 -3.06915,2.82287 -3.69932,6.75386 -0.88583,5.52582 0.9625,-0.42011 8.725,-1.11189 17.25,-1.53729 z m 45.00001,-23.89657 c 3.575,-1.3002 6.64846,-2.47171 6.82989,-2.60337 0.18146,-0.13165 -0.36908,-1.30616 -1.22339,-2.61001 -1.38084,-2.10743 -5.71046,-4.01765 -14.3632,-6.33701 -4.19143,-1.12351 -17.97921,2.40877 -27.62381,7.07693 -13.56945,6.56785 -11.8766,7.65419 11.22354,7.20236 16.56492,-0.32399 19.38582,-0.62999 25.15697,-2.7289 z m -409.01366,-2.26627 c -0.018,-5.58784 -0.92026,-8.75 -2.49677,-8.75 -1.08118,0 -14.36679,-5.01043 -24.98958,-9.42437 -5.17812,-2.15159 -9.36585,-3.37645 -9.85874,-2.88355 -1.57829,1.57828 4.03575,9.3709 10.30785,14.30792 3.71175,2.92166 21.52091,10.74655 24.80089,10.89688 1.99856,0.0916 2.24847,-0.37182 2.23635,-4.14688 z M 489.39272,271.8026 c 11.35069,-1.79127 21.02578,-7.58252 33.00798,-19.7577 3.02061,-3.06926 5.49202,-6.22008 5.49202,-7.00183 0,-0.78174 0.64957,-1.67061 1.4435,-1.97527 2.17363,-0.8341 5.53963,-7.96567 6.24196,-13.22489 0.34215,-2.56213 1.06434,-4.94795 1.60487,-5.30183 0.54052,-0.35388 1.19933,-2.89717 1.46401,-5.65178 0.41789,-4.34901 0.20243,-5.15758 -1.63655,-6.14177 -1.16478,-0.62337 -2.11779,-0.71937 -2.11779,-0.21333 0,1.07527 -8.19171,3.93586 -15.84741,5.53401 -5.18745,1.08289 -5.41321,1.27261 -7.54663,6.34215 -2.98121,7.08412 -12.27459,15.18075 -20.30036,17.68619 -3.19308,0.9968 -6.26399,2.18057 -6.82425,2.63059 -5.01025,4.02447 -39.81053,3.6689 -53.07914,-0.54232 -4.33288,-1.37518 -8.36669,-2.50033 -8.96401,-2.50033 -0.95972,0 -12.23119,-4.58528 -21.08933,-8.57922 -1.73312,-0.78143 -3.49769,-1.42078 -3.92126,-1.42078 -0.42356,0 -1.48056,-0.60814 -2.34886,-1.35143 -0.86831,-0.74329 -3.60374,-2.43079 -6.07874,-3.75 -2.475,-1.31921 -4.725,-2.68329 -5,-3.03128 -0.275,-0.34799 -3.65,-2.29966 -7.5,-4.33705 -3.85,-2.03738 -7.45,-4.06673 -8,-4.50968 -2.47415,-1.99254 -5.65342,-1.30281 -14.75,3.19996 -5.3625,2.65442 -9.72838,5.1532 -9.70195,5.55285 0.0618,0.93528 8.87783,6.45194 15.95195,9.98204 3.025,1.50953 5.725,2.96959 6,3.24459 1.77065,1.77065 50.10032,26.06403 56,28.14895 13.98327,4.94162 26.31599,7.4589 44.5,9.08309 3.33535,0.29791 13.82779,-0.66645 23,-2.11393 z m -324.0673,-2.36811 c -0.38615,-1.2375 -1.31647,-3.13763 -2.06739,-4.22251 -0.75091,-1.08487 -1.36531,-2.70488 -1.36531,-3.60001 0,-1.8326 -9.83236,-11.92748 -11.6173,-11.92748 -0.63475,0 -2.44302,-0.67223 -4.01839,-1.49384 -2.95688,-1.54212 -13.01178,-2.03957 -14.97478,-0.74085 -1.39932,0.9258 -4.38953,6.69528 -4.38953,8.46942 0,1.59084 5.04416,4.7521 7.65429,4.79707 1.01514,0.0175 2.71922,0.6925 3.78684,1.5 1.06762,0.80751 2.64262,1.48347 3.5,1.50213 0.85738,0.0187 3.35887,0.90339 5.55887,1.96607 2.2,1.06268 4.91237,1.94741 6.02749,1.96607 1.11513,0.0187 2.91513,0.65483 4,1.41372 1.92003,1.34308 4.61433,2.26861 7.28991,2.50421 0.91888,0.0809 1.10501,-0.5646 0.6153,-2.134 z m 150.2874,-9.64835 c 3.17894,-1.59409 8.00781,-3.89652 10.73081,-5.11651 4.61106,-2.06591 4.82103,-2.31313 3.05887,-3.60165 -1.04063,-0.76092 -2.72015,-1.38349 -3.73229,-1.38349 -1.01214,0 -2.0837,-0.63439 -2.38123,-1.40975 -0.29754,-0.77537 -1.69036,-1.69823 -3.09515,-2.05081 -1.4048,-0.35258 -4.57723,-2.18577 -7.04984,-4.07375 -2.47261,-1.88798 -4.77817,-3.30384 -5.12346,-3.14637 -5.63401,2.56944 -8.90452,4.13472 -10.12781,4.84722 -0.825,0.48052 -2.90792,1.52286 -4.62871,2.31631 -4.8041,2.21515 -4.73724,3.84147 0.24262,5.90115 2.41235,0.99776 4.38609,2.16673 4.38609,2.5977 0,0.43098 2.475,1.9945 5.5,3.4745 3.025,1.47999 5.5,3.1078 5.5,3.61735 0,1.3305 0.32404,1.23542 6.72009,-1.9719 z m -44.60629,-5.35165 c 2.64232,-1.2375 4.82266,-2.52862 4.8452,-2.86916 0.0466,-0.7047 -6.14955,-1.85334 -10.08657,-1.86983 -1.44515,-0.006 -3.23056,0.71557 -3.96756,1.60361 -1.14879,1.38422 -1.00776,1.88364 0.98834,3.5 2.872,2.32559 2.43505,2.34497 8.22059,-0.36462 z m 84.71225,-2.54969 c 0.31408,-2.21515 0.0964,-2.28868 -5.92063,-2 -7.39411,0.35474 -8.70096,2.07904 -2.68904,3.54802 6.18469,1.51119 8.22801,1.1438 8.60967,-1.54802 z M 226.6876,250.16206 c 2.36218,-0.36769 6.18718,-1.7687 8.5,-3.11336 5.93494,-3.45053 6.77357,-3.88675 10.70512,-5.56833 1.925,-0.82334 9.125,-4.22547 16,-7.56029 6.875,-3.33481 14.41132,-6.84487 16.74738,-7.80013 3.37101,-1.37848 4.01632,-2.01525 3.12756,-3.08615 -0.61591,-0.74212 -1.69932,-1.34931 -2.40759,-1.34931 -0.70826,0 -3.56493,-1.8 -6.34813,-4 -2.78321,-2.2 -5.52362,-4 -6.0898,-4 -0.56618,0 -1.03227,-0.3375 -1.03574,-0.75 -0.003,-0.4125 -1.38557,-1.53498 -3.0713,-2.49441 -3.04311,-1.73197 -3.12362,-1.71642 -11.28381,2.17827 -4.52035,2.15748 -9.55077,4.24201 -11.17869,4.6323 -1.62793,0.39029 -3.53325,1.16169 -4.23404,1.71423 -0.7008,0.55254 -1.55938,0.71939 -1.908,0.37079 -0.3486,-0.34861 -1.12522,-0.24745 -1.72583,0.22479 -0.6006,0.47223 -3.90629,1.81833 -7.34599,2.99132 -8.87611,3.0269 -23.33966,2.99813 -32.05737,-0.0638 -12.86889,-4.51985 -18.19084,-13.02298 -14.03334,-22.42169 2.06075,-4.65866 8.2619,-11.3818 10.49809,-11.3818 0.74063,0 1.3466,-0.38755 1.3466,-0.86122 0,-1.68386 11.18151,-5.13878 16.63114,-5.13878 5.6678,0 18.66374,2.27454 23.86886,4.17752 1.65,0.60323 6.375,2.75961 10.5,4.79195 4.125,2.03234 8.7375,4.00419 10.25,4.3819 1.5125,0.3777 2.75,1.12816 2.75,1.66768 0,0.53952 0.83931,0.98095 1.86514,0.98095 1.02583,0 2.93833,0.8381 4.25,1.86244 3.96181,3.09395 6.43926,3.38765 11.08001,1.31353 2.36767,-1.05819 5.98608,-2.46351 8.04092,-3.12293 4.99762,-1.6038 5.24004,-2.35257 1.45955,-4.50824 -5.29482,-3.01915 -13.88642,-8.69181 -19.28649,-12.73403 -2.79998,-2.09592 -5.57498,-3.81077 -6.16667,-3.81077 -0.59168,0 -1.22579,-0.3375 -1.40913,-0.75 -0.39275,-0.8837 -2.91986,-2.30917 -16.33333,-9.21316 -5.5,-2.83088 -10.675,-5.52131 -11.5,-5.97873 -1.92195,-1.06563 -9.82836,-4.28792 -17.5,-7.13221 -3.3,-1.22349 -7.35,-2.79763 -9,-3.4981 -1.65,-0.70046 -4.32001,-1.60276 -5.93335,-2.00511 -1.61334,-0.40235 -4.08833,-1.33428 -5.5,-2.07095 -1.41166,-0.73668 -3.46664,-1.3565 -4.56665,-1.37738 -1.1,-0.0209 -2.87351,-0.69866 -3.94112,-1.50616 -2.21033,-1.67181 -6.55888,-1.97619 -6.55888,-0.4591 0,0.55501 -1.2375,2.35581 -2.75,4.00179 -1.51249,1.64598 -3.20668,3.55438 -3.76483,4.2409 -0.55816,0.68651 -2.65521,3.27321 -4.6601,5.74821 -2.0049,2.475 -6.16073,8.94519 -9.23517,14.3782 -5.5353,9.78171 -5.5899,9.95869 -5.5899,18.11973 0,5.45036 0.67766,10.40234 2.00093,14.6218 1.8209,5.80624 5.47007,13.63252 6.93824,14.88027 0.32358,0.275 2.4824,2.79784 4.79739,5.60631 4.51855,5.48176 17.13786,14.78431 22.4906,16.57935 1.80006,0.60365 3.94784,1.67377 4.77284,2.37803 0.825,0.70427 2.85,1.58277 4.5,1.95222 1.65,0.36945 4.35,1.27096 6,2.00334 2.98646,1.3256 18.64239,3.443 21.5,2.90779 0.825,-0.15452 3.4327,-0.58178 5.79488,-0.94947 z m 254.14133,-6.59297 c 4.16009,-1.16347 9.20023,-2.94656 11.20033,-3.96244 6.51817,-3.31066 16.68394,-16.43501 14.4559,-18.66305 -0.27769,-0.2777 -3.33709,0.26155 -6.79867,1.19833 -7.64761,2.0696 -30.47481,1.68774 -40.79377,-0.68242 -11.76021,-2.7012 -32.17988,-11.13966 -50,-20.66258 -5.44532,-2.90994 -5.75477,-2.96087 -9.61955,-1.58334 -2.13425,0.76071 -4.46172,1.40287 -5.17215,1.42701 -0.71044,0.0241 -4.08544,1.34112 -7.5,2.92662 -3.41457,1.58551 -7.6708,3.19626 -9.4583,3.57946 -3.75908,0.80586 -4.20299,2.10057 -1.06201,3.09747 1.20339,0.38195 5.14089,2.58271 8.75,4.8906 5.67064,3.62615 19.011,11.07252 27.06201,15.10557 9.78954,4.90394 26.72925,11.44417 29.6413,11.44417 1.3696,0 3.31606,0.44199 4.32545,0.98221 1.0094,0.54021 3.92052,1.15592 6.46916,1.36823 2.54864,0.21231 4.91818,0.67032 5.26566,1.01779 1.46438,1.46438 16.0162,0.53519 23.23464,-1.48363 z m -160.9214,-12.75127 c 1.91685,-1.02668 4.9166,-2.1806 6.66609,-2.56428 4.46869,-0.98003 6.13969,-3.18036 3.12175,-4.11065 -1.26646,-0.39038 -4.10265,-1.91199 -6.30265,-3.38133 -2.2,-1.46935 -4.675,-3.00544 -5.5,-3.41353 -0.825,-0.40809 -2.55744,-1.35073 -3.84987,-2.09476 -2.08168,-1.19839 -3.05177,-1.04374 -8.5,1.35512 -3.38257,1.48934 -7.27513,3.19315 -8.65013,3.78624 -2.37169,1.02299 -2.39735,1.11708 -0.5,1.83311 1.10001,0.41513 2.99761,1.65218 4.21692,2.749 3.43969,3.09415 11.56142,7.60144 13.79789,7.65737 1.10814,0.0277 3.58315,-0.78962 5.5,-1.81629 z M 216.58104,222.2407 c 4.50358,-0.79258 9.54373,-2.14197 11.20034,-2.99864 1.65661,-0.85666 3.58817,-1.55757 4.29235,-1.55757 1.74682,0 14.41878,-4.91583 22.32383,-8.66008 l 3.50483,-1.66007 -3.75483,-2.30872 c -2.06516,-1.26979 -4.31734,-2.32276 -5.00484,-2.33992 -0.6875,-0.0172 -1.25,-0.41295 -1.25,-0.87952 0,-0.46657 -1.6875,-1.55977 -3.75,-2.42934 -2.0625,-0.86956 -5.325,-2.48457 -7.25,-3.5889 -3.99395,-2.29124 -13.15879,-6.0922 -20.5,-8.50204 -13.96891,-4.58545 -28.63349,0.72317 -31.51029,11.40681 -1.41202,5.24383 0.53321,11.24869 5.70166,17.60086 3.35544,4.12392 4.76831,4.79271 13.30863,6.29966 2.475,0.43672 4.5,0.85354 4.5,0.92628 0,0.0727 3.68475,-0.51623 8.18832,-1.30881 z m 129.11654,-2.66006 c 2.58233,-1.15712 7.55883,-3.45453 11.05889,-5.10537 l 6.36375,-3.00152 -4.21582,-2.39463 c -2.31871,-1.31705 -4.37233,-2.39463 -4.56362,-2.39463 -0.69416,0 -9.41035,-6.12996 -9.94403,-6.99349 -0.52639,-0.8517 -5.26443,0.21165 -8.50403,1.90854 -0.825,0.43213 -4.30365,2.24403 -7.73033,4.02643 -6.79363,3.53374 -6.81184,4.02807 -0.26967,7.31929 1.925,0.96842 5.44748,3.33092 7.82774,5.25 2.38027,1.91907 4.54244,3.48923 4.80487,3.48923 0.26242,0 2.58994,-0.94673 5.17225,-2.10385 z m 152.76148,1.07725 c 11.16764,-1.93214 10.43366,-1.43928 10.43366,-7.00602 0,-2.74699 -0.4101,-5.77591 -0.91134,-6.73095 -0.50124,-0.95504 -1.66507,-3.87814 -2.58628,-6.49579 -2.4234,-6.88609 -5.92448,-9.84105 -15.09534,-12.74064 -7.13088,-2.2546 -9.47761,-2.4917 -23.90704,-2.41543 -11.89106,0.0629 -17.39486,0.51227 -21.4315,1.75 -2.98733,0.91599 -6.90817,1.66543 -8.71298,1.66543 -1.80481,0 -5.43564,0.84548 -8.0685,1.87885 -2.63286,1.03337 -7.05854,2.18808 -9.83484,2.56603 -7.50808,1.02211 -7.9562,1.79317 -2.66368,4.5833 2.57879,1.3595 8.52028,4.50184 13.20332,6.98298 10.26155,5.43673 22.52802,10.31727 30.00819,11.93956 3.025,0.65606 6.4,1.62255 7.5,2.14775 1.68279,0.80346 14.05172,2.25416 23.56634,2.76401 1.41149,0.0756 5.23649,-0.32445 8.5,-0.88908 z m -197.73293,-4.03596 c 4.21663,-1.68441 8.04033,-3.43065 8.49712,-3.88053 0.4568,-0.44989 -1.5682,-2.23657 -4.5,-3.9704 -7.04533,-4.16654 -8.53241,-5.08518 -13.487,-8.33155 l -4.18947,-2.74504 -8.32703,3.55702 c -8.84572,3.7786 -11.42109,5.43306 -8.45721,5.43306 0.97341,0 3.66105,1.30119 5.97253,2.89154 2.31149,1.59034 5.76757,3.55985 7.68018,4.37668 1.91261,0.81684 4.37747,2.4139 5.47748,3.54903 1.1,1.13514 2.37504,2.09063 2.8334,2.12332 0.45839,0.0327 4.28339,-1.31872 8.5,-3.00313 z m 219.23324,-0.28918 c 1.41166,-0.73667 3.81386,-1.65244 5.33823,-2.03503 5.55729,-1.39479 10.51312,-4.09149 11.74328,-6.39007 0.92028,-1.71956 0.95662,-2.54038 0.13491,-3.04821 -0.61847,-0.38224 -1.4576,-2.04048 -1.86473,-3.68497 -1.13159,-4.57085 -7.26973,-15.58778 -10.78169,-19.35133 -1.72516,-1.84875 -5.61165,-5.19229 -8.63665,-7.43009 -3.02499,-2.23781 -5.725,-4.33559 -6,-4.66175 -1.02371,-1.21413 -6.59991,-4.54703 -9.5,-5.67814 -15.31153,-5.97193 -13.15204,-5.67557 -29.27227,-4.01714 -15.65154,1.61021 -33.39758,4.54131 -34.22773,5.65337 -0.44427,0.59514 -9.49466,2.86688 -12.75,3.20038 -0.6875,0.0704 -1.25,0.45297 -1.25,0.8501 0,0.39712 -1.6304,1.0279 -3.62311,1.40174 -1.99271,0.37383 -4.35521,1.04606 -5.25,1.49384 -4.30955,2.15661 -13.08838,5.05482 -17.12689,5.6542 -7.70836,1.14406 -7.83451,2.22514 -0.79295,6.79556 3.46112,2.24649 6.85601,4.83972 7.54419,5.76272 1.91947,2.57443 6.49481,3.10722 12.39835,1.44377 16.26187,-4.58214 20.09738,-5.49019 27.85041,-6.59348 4.675,-0.66527 9.53368,-1.61552 10.79705,-2.11166 4.44113,-1.74407 23.27351,-1.04081 32.13473,1.2 11.69616,2.95771 14.08684,4.13535 19.84915,9.77766 5.60259,5.48591 7.20456,9.45454 7.2135,17.87027 0.006,5.79587 1.09565,6.4953 6.07223,3.89826 z M 329.39272,202.68449 c 4.27696,-2.2 8.36256,-4 9.07914,-4 2.84343,0 2.27771,-1.9741 -1.01326,-3.53576 -1.91429,-0.90839 -4.51224,-2.66548 -5.77321,-3.90463 -3.9983,-3.92913 -12.68177,-9.54807 -13.27418,-8.58952 -0.31351,0.50726 -4.72092,3.01893 -9.79425,5.58149 -10.84314,5.4769 -11.71391,6.14984 -9.14146,7.06465 1.05447,0.37499 2.81723,1.47155 3.91722,2.43681 2.7641,2.42553 14.64486,8.76612 16.61186,8.86551 0.88652,0.0448 5.11119,-1.71855 9.38814,-3.91855 z m 52.82657,0.56599 c 4.49539,-1.8887 9.74843,-3.74194 11.67343,-4.11831 7.48868,-1.46415 7.66388,-2.21489 1.5211,-6.51792 -3.08545,-2.16137 -5.86802,-3.92976 -6.18349,-3.92976 -0.31547,0 -2.14231,-1.37737 -4.05966,-3.06081 -3.01825,-2.65006 -3.70695,-2.87929 -5.13201,-1.70812 -2.46647,2.02706 -10.75477,5.883 -18.77447,8.73439 -3.92069,1.394 -7.25146,2.98454 -7.40171,3.53454 -0.15025,0.55 1.48258,1.98932 3.62853,3.19848 10.32827,5.81963 13.03938,7.14907 14.72828,7.22231 1.00461,0.0436 5.50461,-1.46609 10,-3.3548 z m -23.37691,-11.65781 c 4.70269,-1.70049 9.67534,-3.66746 11.05034,-4.37103 1.375,-0.70357 4.1875,-1.82215 6.25,-2.48574 2.0625,-0.66358 3.75,-1.52107 3.75,-1.90552 0,-0.38446 -1.73811,-1.82602 -3.86248,-3.20349 -5.11737,-3.31817 -10.43495,-7.60077 -15.13893,-12.1924 -2.11296,-2.0625 -4.21454,-3.7443 -4.67017,-3.73733 -0.74838,0.0114 -4.39971,1.77583 -15.95525,7.70987 -2.13024,1.09393 -6.06578,2.9748 -8.74563,4.17971 l -4.87245,2.19075 4.37245,2.81507 c 2.40486,1.54829 6.00908,4.11486 8.0094,5.7035 2.00032,1.58864 4.6482,3.56343 5.88418,4.38843 1.23598,0.825 2.74937,2.04538 3.36306,2.71196 1.47641,1.60362 0.84371,1.71164 10.56548,-1.80378 z m -52.12944,-4.62054 11.32021,-5.75551 -2.32021,-1.76571 c -2.93782,-2.23572 -4.04332,-3.02127 -6.00414,-4.26642 -0.86613,-0.55 -4.89157,-3.24717 -8.94543,-5.99372 -4.05385,-2.74655 -7.82065,-5.22155 -8.37065,-5.5 -0.55,-0.27845 -3.025,-1.84475 -5.5,-3.48065 -2.475,-1.6359 -5.4,-3.46859 -6.5,-4.07264 -3.34689,-1.8379 -6.84033,-3.91094 -7.94908,-4.71707 -3.74041,-2.71951 -8.78641,-5.73592 -9.59533,-5.73592 -0.52557,0 -0.95559,-0.40122 -0.95559,-0.89159 0,-0.49038 -1.20199,-1.19327 -2.67108,-1.56199 -1.46909,-0.36872 -3.77977,-1.5425 -5.13486,-2.60841 -1.35508,-1.06591 -3.16159,-1.93801 -4.01447,-1.93801 -0.85288,0 -2.47969,-0.82577 -3.61514,-1.83504 -1.13545,-1.00927 -4.53945,-2.83338 -7.56445,-4.05357 -3.025,-1.2202 -6.4,-2.60363 -7.5,-3.07429 -3.98781,-1.70628 -6.12373,-2.19297 -13.06423,-2.97687 -8.1152,-0.91657 -16.61272,0.53809 -22.93577,3.9263 -10.50208,5.62754 -13.73437,7.6447 -13.67133,8.53179 0.0376,0.52968 3.20738,1.64225 7.04387,2.47237 3.83651,0.83012 7.30967,1.84681 7.71813,2.25931 0.40846,0.4125 1.68016,0.748 2.826,0.74555 2.5041,-0.005 17.48596,4.53995 23.08333,7.00318 2.2,0.96815 4.675,2.03663 5.5,2.37441 0.825,0.33777 2.175,1.03951 3,1.55941 0.825,0.51991 3.975,2.11378 7,3.54195 3.025,1.42817 6.85,3.47397 8.5,4.54624 1.65,1.07226 4.125,2.431 5.5,3.01943 8.06906,3.45313 15.75232,7.67563 21.01208,11.54764 3.29645,2.4267 6.34677,4.41219 6.7785,4.41219 0.43173,0 2.34297,1.33171 4.24719,2.95936 1.90423,1.62765 3.84125,2.97765 4.3045,3 0.46325,0.0223 1.98644,0.94064 3.38486,2.04064 1.39842,1.1 2.8194,2.00971 3.15773,2.02157 0.33833,0.0119 5.70925,-2.5684 11.93536,-5.73393 z m 69.89594,-37.78764 c 2.23316,-0.96569 2.02841,-1.29931 -5.96742,-9.72376 l -8.27992,-8.72376 -2.98441,2.01789 c -1.64142,1.10984 -6.33411,3.60924 -10.42818,5.55421 l -7.44377,3.53632 3.44377,2.81707 c 1.89407,1.54939 6.55452,5.29166 10.35655,8.31616 l 6.91278,5.49909 6.03905,-4.14661 c 3.32147,-2.28064 7.07967,-4.59661 8.35155,-5.14661 z m 32.75542,-0.45401 c 1.36228,-2.20421 -0.81355,-6.29093 -4.07488,-7.6536 -4.71222,-1.96889 -8.25249,-1.73916 -13.1467,0.85312 -4.58322,2.42755 -5.39929,3.75449 -2.30901,3.75449 1.06754,0 2.21469,0.44287 2.54923,0.98416 1.47323,2.38374 15.71381,4.11279 16.98136,2.06183 z m -80.97158,-8.04599 c -0.99549,-1.1 -2.39287,-2 -3.1053,-2 -0.71242,0 -1.65517,-0.58336 -2.09501,-1.29636 -2.31715,-3.75627 -16.10406,-8.44724 -17.6196,-5.99503 -1.24918,2.02121 0.65725,5.1127 4.47656,7.25928 5.429,3.05126 8.39603,3.84514 14.74834,3.94616 5.34348,0.085 5.38439,0.0632 3.59501,-1.91405 z m 47.51068,-20.36186 c 13.44855,-9.03956 19.83975,-16.40066 20.52358,-23.638145 0.12993,-1.375 0.57615,-5.54871 0.99163,-9.2749 0.6207,-5.56673 0.42692,-7.503372 -1.08666,-10.859859 -5.39627,-11.966802 -17.80126,-16.548739 -28.45909,-10.511725 -13.43221,7.608523 -18.93311,19.274046 -14.09584,29.892494 1.16363,2.55434 2.12709,5.231455 2.14102,5.949135 0.0223,1.15133 4.2213,9.97868 9.30181,19.55486 0.94833,1.7875 2.27999,3.25 2.95924,3.25 0.67924,0 4.15519,-1.96284 7.72432,-4.36186 z"
       id="path3496"
       inkscape:connector-curvature="0" />
  </g>
</svg>
