<?xml version="1.0" encoding="UTF-8" standalone="no"?>
<!-- Created with Inkscape (http://www.inkscape.org/) -->

<svg
   xmlns:dc="http://purl.org/dc/elements/1.1/"
   xmlns:cc="http://creativecommons.org/ns#"
   xmlns:rdf="http://www.w3.org/1999/02/22-rdf-syntax-ns#"
   xmlns:svg="http://www.w3.org/2000/svg"
   xmlns="http://www.w3.org/2000/svg"
   version="1.0"
   width="400"
   height="400"
   id="svg2">
  <metadata
     id="metadata30">
    <rdf:RDF>
      <cc:Work
         rdf:about="">
        <dc:format>image/svg+xml</dc:format>
        <dc:type
           rdf:resource="http://purl.org/dc/dcmitype/StillImage" />
        <dc:title></dc:title>
      </cc:Work>
    </rdf:RDF>
  </metadata>
  <defs
     id="defs12">
    <style
       type="text/css"
       id="style7684" />
    <style
       type="text/css"
       id="style6468" />
    <style
       type="text/css"
       id="style1429" />
    <style
       type="text/css"
       id="style1384" />
    <style
       type="text/css"
       id="style1386" />
    <marker
       markerUnits="strokeWidth"
       refX="0"
       refY="5"
       markerWidth="4"
       markerHeight="3"
       orient="auto"
       viewBox="0 0 10 10"
       id="marker1388">
      <path
         d="M 0,0 10,5 0,10 0,0 z"
         id="path1390" />
    </marker>
    <marker
       markerUnits="strokeWidth"
       refX="10"
       refY="5"
       markerWidth="4"
       markerHeight="3"
       orient="auto"
       viewBox="0 0 10 10"
       id="marker1392">
      <path
         d="M 10,0 0,5 10,10 10,0 z"
         id="path1394" />
    </marker>
    <style
       type="text/css"
       id="style1396" />
    <style
       type="text/css"
       id="style1340" />
    <style
       type="text/css"
       id="style2435" />
    <marker
       markerUnits="strokeWidth"
       refX="10"
       refY="5"
       markerWidth="4"
       markerHeight="3"
       orient="auto"
       viewBox="0 0 10 10"
       id="ArrowStart">
      <path
         d="M 10,0 0,5 10,10 10,0 z"
         id="path553" />
    </marker>
    <marker
       markerUnits="strokeWidth"
       refX="0"
       refY="5"
       markerWidth="4"
       markerHeight="3"
       orient="auto"
       viewBox="0 0 10 10"
       id="ArrowEnd">
      <path
         d="M 0,0 10,5 0,10 0,0 z"
         id="path551" />
    </marker>
    <style
       type="text/css"
       id="style33249" />
    <style
       type="text/css"
       id="style6" />
    <style
       type="text/css"
       id="style1620" />
    <marker
       markerUnits="strokeWidth"
       refX="0"
       refY="5"
       markerWidth="4"
       markerHeight="3"
       orient="auto"
       viewBox="0 0 10 10"
       id="marker1616">
      <path
         d="M 0,0 10,5 0,10 0,0 z"
         id="path1618" />
    </marker>
    <marker
       markerUnits="strokeWidth"
       refX="10"
       refY="5"
       markerWidth="4"
       markerHeight="3"
       orient="auto"
       viewBox="0 0 10 10"
       id="marker1612">
      <path
         d="M 10,0 0,5 10,10 10,0 z"
         id="path1614" />
    </marker>
    <style
       type="text/css"
       id="style1610" />
  </defs>
  <rect
     width="0"
     height="1.2761213"
     x="3903.6138"
     y="-155.44034"
     id="rect2545"
     style="fill:none;stroke:#000000;stroke-width:0.15874948;stroke-miterlimit:4;stroke-opacity:1;stroke-dasharray:none" />
  <rect
     width="0"
     height="1.1016479"
     x="4241.5854"
     y="-151.55475"
     id="rect4000"
     style="fill:none;stroke:#000000;stroke-width:0.13704498;stroke-miterlimit:4;stroke-opacity:1;stroke-dasharray:none" />
  <rect
     width="0"
     height="1.1016479"
     x="4159.3291"
     y="-187.5419"
     id="rect7802"
     style="fill:none;stroke:#000000;stroke-width:0.13704498;stroke-miterlimit:4;stroke-opacity:1;stroke-dasharray:none" />
  <g
     transform="translate(-636.42857,-287.85715)"
     id="g4241">
    <g
       id="g4238">
      <path
         d="m 1033.9931,487.8592 c 0.03,109.09414 -88.43258,197.54845 -197.56748,197.54845 -109.1347,0 -197.59748,-88.4543 -197.5673,-197.54845 -0.0302,-109.09415 88.4326,-197.54845 197.5673,-197.54845 109.1349,0 197.59768,88.4543 197.56748,197.54845 l 0,0 z"
         id="path6520"
         style="fill:#ffd700;fill-opacity:1;fill-rule:nonzero;stroke:none" />
    </g>
    <path
       d="m 835.14732,287.85715 c -109.73417,0.6961 -198.71875,90.00909 -198.71875,200 -1e-5,86.69875 55.28297,160.55338 132.4375,188.28125 0.0217,0.008 0.0408,0.0235 0.0625,0.0312 l 0.125,0.125 0.0625,-0.0625 c 21.04124,7.52998 43.70333,11.62505 67.3125,11.62505 23.74816,-1e-5 46.54164,-4.13517 67.6875,-11.75 l 0.53125,0.53125 1.1875,-1.15625 c 55.27362,-20.47856 99.07698,-64.70533 118.96878,-120.28125 l 0.6875,-0.6875 -0.3125,-0.3125 c 7.3028,-20.7546 11.25,-43.10035 11.25,-66.34375 0,-23.97875 -4.2182,-46.97164 -11.9688,-68.28125 l 0.6875,-0.6875 -1.5,-1.5 C 995.11229,341.71508 921.97501,287.85715 836.42857,287.85715 c -0.43096,0 -0.85092,-0.003 -1.28125,0 z m 1.28125,5 c 1.33682,0 2.6696,0.0358 4,0.0625 l 0,182.9375 -8,0 0,-182.9375 c 1.3304,-0.0267 2.66318,-0.0625 4,-0.0625 z m -12,0.375 0,63.40625 -52.78125,-52.78125 c 16.67293,-5.86542 34.38198,-9.50842 52.78125,-10.625 z m 24,0 c 18.04329,1.09496 35.42291,4.64413 51.8125,10.3125 l -51.8125,51.8125 0,-62.125 z m 54.875,11.375 c 0.8974,0.32731 1.79631,0.69119 2.6875,1.03125 l -57.5625,57.5625 0,-3.71875 54.875,-54.875 z m -134.71875,0.375 55.84375,55.8125 0,3.75 -58.53125,-58.53125 c 0.89541,-0.34722 1.78575,-0.69691 2.6875,-1.03125 z m 140.09375,1.71875 c 49.39724,19.69797 88.84477,58.97464 108.75003,108.21875 l -60.96878,60.9375 -108.03125,0 0,-108.90625 60.25,-60.25 z m -145.5,0.375 61.25,61.21875 0,107.5625 -107.4375,0 -61.375,-61.375 c 19.82911,-48.70786 58.77521,-87.6407 107.5625,-107.40625 z m 0.0312,66.84375 c -16.79369,0.41165 -31.98508,13.10604 -35.15625,30.28125 -3.48428,18.87054 8.84376,36.04982 27.53125,38.34375 18.68748,2.29399 36.70328,-11.1606 40.1875,-30.03125 0.2872,-1.55523 0.42252,-3.10019 0.5,-4.625 -4.15862,12.03483 -16.38581,20.14983 -29.0625,18.59375 -14.01567,-1.72044 -23.26938,-14.59697 -20.65625,-28.75 2.36355,-12.8008 13.62372,-22.2353 26.125,-22.65625 -1.44859,-0.3839 -2.92866,-0.71723 -4.46875,-0.90625 -1.67896,-0.2061 -3.34225,-0.29064 -5,-0.25 z m 150.53125,0.25 c -1.52743,0.10323 -2.8134,0.86491 -3.6875,2.3125 -2.84046,4.70409 16.27868,4.27033 7.28125,17.75 -4.44997,-1.10956 -9.33958,-0.27049 -13.21875,2.6875 -3.02685,-2.72986 -5.81644,-4.13781 -7.9375,-4.90625 -11.34733,0.0115 -18.80165,8.39233 -14.28125,13.09375 3.69752,3.84562 8.0581,-13.56266 18.09375,-3.4375 -2.34468,4.16118 -2.66472,9.22714 -0.8125,13.65625 -4.05622,2.41153 -6.45508,4.99696 -7.875,7.03125 -2.92575,10.96366 3.25759,20.36828 8.96875,17.21875 4.81138,-2.65331 -11.99142,-11.85663 2.53125,-19.03125 3.3387,3.20445 7.80767,4.68398 12.1875,4.28125 1.27787,4.93033 3.26086,8.10163 4.9375,10.09375 9.83285,5.66367 20.50157,2.14424 18.9375,-4.1875 -1.32919,-5.38099 -14.76178,8.74185 -17.78125,-7.8125 0.87665,-0.48627 1.73703,-1.04683 2.53125,-1.71875 1.67299,-1.41537 2.95928,-3.12197 3.875,-4.96875 4.66994,1.218 8.27229,1.09694 10.75,0.65625 9.8213,-5.68368 12.10922,-16.68865 5.84375,-18.5 -5.24815,-1.51727 0.0203,16.61846 -15,11.71875 0.19638,-3.81313 -0.99747,-7.70103 -3.65625,-10.84375 -0.72611,-0.85827 -1.5193,-1.62095 -2.375,-2.28125 2.33306,-4.14302 3.13018,-7.6101 3.34375,-10.09375 -2.11893,-7.87584 -7.91238,-12.70241 -12.25,-12.71875 -0.1326,-5e-4 -0.27681,-0.009 -0.40625,0 z m -259.2187,42.96875 58.71875,58.71875 -3.78125,0 -55.96875,-55.96875 c 0.34205,-0.91832 0.6758,-1.83828 1.03125,-2.75 z m 363.96878,0.46875 c 0.3495,0.90316 0.6949,1.80914 1.0312,2.71875 l -55.53123,55.53125 -3.75,0 58.25003,-58.25 z m -366.09378,5.34375 52.875,52.90625 -63.625,0 c 1.12346,-18.44304 4.84217,-36.19404 10.75,-52.90625 z m 368.21878,0.4375 c 5.8177,16.58413 9.4801,34.18696 10.5937,52.46875 l -63.06248,0 52.46878,-52.46875 z m -379.28128,60.46875 183.09375,0 0,8 -183.09375,0 c -0.0267,-1.32824 -0.0312,-2.66542 -0.0312,-4 0,-1.33459 0.005,-2.67177 0.0312,-4 z m 191.09375,0 8,0 0,8 -8,0 0,-8 z m 16,0 183.09373,0 c 0.027,1.32823 0.031,2.66541 0.031,4 0,1.33458 0,2.67176 -0.031,4 l -183.09373,0 0,-8 z m -206.78125,16 62.75,0 -52.25,52.25 c -5.76966,-16.51901 -9.3942,-34.04974 -10.5,-52.25 z m 66.875,0 3.71875,0 -58,58 c -0.34413,-0.89339 -0.69997,-1.78784 -1.03125,-2.6875 l 55.3125,-55.3125 z m 7.46875,0 108.4375,0 0,109.34375 -59.96875,59.96875 c -49.62246,-19.69112 -89.24617,-59.16324 -109.15625,-108.625 l 60.6875,-60.6875 z m 116.4375,0 8,0 0,182.9375 c -1.3304,0.0267 -2.66318,0.0625 -4,0.0625 -1.33682,0 -2.6696,-0.0358 -4,-0.0625 l 0,-182.9375 z m 16,0 110.84375,0 58.96878,58.96875 c -19.64195,50.18697 -59.51436,90.26278 -109.59378,110.21875 l -60.21875,-60.21875 0,-108.96875 z m 114.53125,0 3.75,0 53.56248,53.5625 c -0.3278,0.91737 -0.6901,1.80776 -1.0312,2.71875 l -56.28128,-56.28125 z m 7.90625,0 60.34373,0 c -1.0667,17.55696 -4.4884,34.46511 -9.9062,50.46875 l -50.43753,-50.46875 z m -52.03125,34.375 -10.75,21.71875 -23.875,0.15625 17.84375,16.3125 -7.53125,22.0625 21.78125,-11.625 19.21875,13.46875 -4.375,-23.5 19.40625,-13.75 -24.46875,-2.90625 -7.25,-21.9375 z m -146.03125,1.5 c -0.62467,0.0597 -1.24755,0.27897 -1.875,0.625 -4.80766,2.65125 11.93189,11.82777 -2.53125,19 -3.33074,-3.19216 -7.82013,-4.64368 -12.1875,-4.25 -1.27783,-4.93289 -3.29158,-8.13226 -4.96875,-10.125 -9.83285,-5.66368 -20.50154,-2.11298 -18.9375,4.21875 1.32833,5.37752 14.75031,-8.72303 17.78125,7.78125 -0.87665,0.48626 -1.70578,1.07808 -2.5,1.75 -1.67171,1.41427 -2.95939,3.12361 -3.875,4.96875 -4.68362,-1.2259 -8.29856,-1.09781 -10.78125,-0.65625 -9.8213,5.68367 -12.07794,16.68866 -5.8125,18.5 5.2461,1.51666 -0.0297,-16.59852 14.96875,-11.71875 -0.19637,3.81311 0.99749,7.70101 3.65625,10.84375 0.7236,0.85531 1.52264,1.62252 2.375,2.28125 -2.33246,4.14241 -3.13019,7.57911 -3.34375,10.0625 2.94807,10.95768 13.00372,16.02063 16.375,10.4375 2.84046,-4.70409 -16.2787,-4.27035 -7.28125,-17.75 4.44262,1.09925 9.31624,0.2332 13.1875,-2.71875 3.03562,2.74311 5.81116,4.16714 7.9375,4.9375 11.34733,-0.0116 18.83287,-8.39231 14.3125,-13.09375 -3.69752,-3.84563 -8.08934,13.56263 -18.125,3.4375 2.34828,-4.16251 2.66577,-9.22465 0.8125,-13.65625 4.07051,-2.4155 6.45231,-5.02427 7.875,-7.0625 2.58289,-9.67886 -1.9158,-18.13108 -6.9375,-17.8125 -0.0417,0.003 -0.0834,-0.004 -0.125,0 z m 75.625,76.78125 57.5625,57.5625 c -0.90031,0.34348 -1.8121,0.70077 -2.71875,1.03125 l -54.84375,-54.84375 0,-3.75 z m -24,0.4375 0,3.78125 -54.5,54.5 c -0.91539,-0.33172 -1.84105,-0.6863 -2.75,-1.03125 l 57.25,-57.25 z m 24,7.46875 51.75,51.75 c -16.37303,5.65605 -33.72744,9.21898 -51.75,10.3125 l 0,-62.0625 z m -24,0.46875 0,61.59375 c -17.89213,-1.0856 -35.13753,-4.57159 -51.40625,-10.15625 l 51.40625,-51.4375 z"
       id="path6536"
       style="fill:#b22222;fill-opacity:1;fill-rule:evenodd;stroke:none" />
  </g>
</svg>
